<svg width="35" height="35" viewBox="0 0 35 35" fill="none" xmlns="http://www.w3.org/2000/svg">
<path d="M32.8547 35L20.0682 22.2131C19.0503 23.0536 17.8797 23.7113 16.5564 24.1863C15.2331 24.6614 13.8642 24.8989 12.4496 24.8989C8.97004 24.8989 6.02521 23.6942 3.61513 21.2848C1.20504 18.8754 0 15.9313 0 12.4525C0 8.97398 1.2047 6.02886 3.61411 3.61711C6.02351 1.2057 8.96766 0 12.4466 0C15.9251 0 18.8703 1.20502 21.2821 3.61507C23.6935 6.02512 24.8992 8.96991 24.8992 12.4494C24.8992 13.9033 24.6553 15.2919 24.1673 16.6152C23.6791 17.9385 23.0278 19.0894 22.2135 20.0679L35 32.8543L32.8547 35ZM12.4496 21.8457C15.0728 21.8457 17.2945 20.9353 19.1149 19.1146C20.9356 17.2943 21.846 15.0726 21.846 12.4494C21.846 9.8263 20.9356 7.60456 19.1149 5.78422C17.2945 3.96353 15.0728 3.05319 12.4496 3.05319C9.82644 3.05319 7.60467 3.96353 5.7843 5.78422C3.96359 7.60456 3.05324 9.8263 3.05324 12.4494C3.05324 15.0726 3.96359 17.2943 5.7843 19.1146C7.60467 20.9353 9.82644 21.8457 12.4496 21.8457Z" fill="#D42224"/>
</svg>
