<svg width="316" height="96" viewBox="0 0 316 96" fill="none" xmlns="http://www.w3.org/2000/svg">
<path d="M147.035 40.9749L121.741 94.327H135.77L140.742 83.4838H168.59L173.659 94.327H187.699L162.054 40.9749H147.035ZM145.257 73.6607L154.54 53.4871L164.002 73.6607H145.257ZM315.982 59.3512C315.805 51.1936 313.2 40.2498 293.514 40.2498H278.543C258.853 40.2498 256.241 51.1936 256.079 59.3512C256.044 60.9299 256.044 74.3859 256.079 75.9647C256.241 84.1222 258.853 95.0661 278.543 95.0661H293.514C313.2 95.0661 315.805 84.1222 315.982 75.9647C316.006 74.3859 316.006 60.9299 315.982 59.3512ZM302.627 73.3658C302.627 81.0757 300.516 84.15 291.407 84.15H280.65C271.54 84.15 269.427 81.0757 269.427 73.3658V61.9535C269.427 54.247 271.54 51.1658 280.65 51.1658H291.407C300.52 51.1658 302.627 54.247 302.627 61.9535V73.3658ZM230.023 40.9749H192.968V94.327H230.023C236.191 94.327 240.994 92.5921 244.284 89.1708C247.436 85.8988 249.097 81.0723 249.097 75.2221V60.0833C249.097 54.2262 247.436 49.4032 244.284 46.1415C240.994 42.7099 236.188 40.9749 230.023 40.9749ZM235.095 74.261C235.095 79.7815 231.189 83.4838 225.369 83.4838H206.25V52.0749H225.369C231.189 52.0749 235.095 55.7842 235.095 61.3047V74.2575V74.261ZM108.296 73.6677C111.472 72.2277 116.177 69.1465 116.177 61.7141V55.5447C116.177 42.9285 103.02 40.7633 95.7851 40.9749H61.3703V94.327H74.483V76.7489H92.7162C95.2869 76.7489 97.5185 77.54 98.8436 79.1847C102.248 83.3866 102.964 94.327 102.964 94.327H116.7C116.7 94.327 115.876 86.0272 113.828 81.0306C112.479 77.7551 110.372 75.0382 108.299 73.6677H108.296ZM103.037 59.601C103.037 61.0687 102.459 65.8675 94.9893 65.8675H74.4865V51.0097H94.9893C102.463 51.0097 103.037 55.798 103.037 57.2727V59.601ZM50.7313 44.7848C47.8389 42.2935 43.4173 40.9715 37.9231 40.9715H0V94.3235H12.9951V76.7523H37.9231C48.6589 76.7523 54.8105 71.8113 54.8105 63.1888V54.535C54.8105 50.3955 53.4438 47.1165 50.7279 44.7813L50.7313 44.7848ZM41.5559 60.0937C41.5559 61.6482 40.9712 66.7176 33.5118 66.7176H12.9951V51.0062H33.5118C40.9746 51.0062 41.5559 56.0791 41.5559 57.6266V60.0937Z" fill="#1D1D1B"/>
<path d="M160.088 23.395L161.779 19.2572H170.628L172.405 14.9051H163.559L165.288 10.6913H174.686L176.723 5.72046L161.703 5.65479L152.172 28.2172H167.517L169.484 23.395H160.088Z" fill="#1D1D1B"/>
<path d="M153.836 21.1308C154.423 19.4992 153.998 17.833 152.564 16.8859L148.156 13.6538C147.282 13.0385 146.735 10.7466 149.788 10.7466H157.687L159.584 5.65479H147.6C145.609 5.65479 144.043 6.99256 143.42 8.36144L141.398 12.8034C140.911 14.2725 141.364 15.7728 142.442 16.5575L147.047 19.3989C147.735 19.8552 148.063 20.8646 147.932 21.6839C147.8 22.5031 147.015 23.2187 145.775 23.2187H137.254L135.034 28.3485H147.05C149.401 28.3485 151.229 26.7792 152.304 24.6602L153.843 21.1308H153.836Z" fill="#1D1D1B"/>
<path d="M137.644 5.5896L128.134 28.1485H133.399L142.898 5.5896H137.644Z" fill="#1D1D1B"/>
<path d="M129.71 5.59023L122.361 22.6978C121.936 23.4825 121.511 24.0079 120.467 24.0079H118.701C117.885 24.0079 117.169 23.4168 117.625 22.2415L124.646 5.55566H119.42L111.389 24.364C110.027 27.3023 111.794 29.0341 114.625 29.0341H121.577C123.927 29.0341 125.624 27.5269 126.634 25.242L134.965 5.58678H129.71V5.59023Z" fill="#1D1D1B"/>
<path d="M189.945 5.42725H179.367C178.911 5.42725 178.849 5.65885 178.714 5.91465L169.308 28.3768H174.562L177.535 21.6845C177.732 21.2593 178.126 21.2282 178.354 21.6845C178.583 22.1408 183.412 30.959 183.412 30.959H188.932L183.581 21.1003H185.081C186.353 21.1003 188.279 20.4124 189.029 18.684L192.821 9.31267C193.765 6.66477 191.867 5.42725 189.945 5.42725ZM186.554 12.2198L185.51 14.9922C185.151 15.7112 184.594 15.8114 183.878 15.8114H180.152L182.378 10.6504H185.576C186.392 10.6504 186.879 11.1724 186.557 12.2198H186.554Z" fill="#1D1D1B"/>
<path d="M107.698 21.1003C108.97 21.1003 110.896 20.4124 111.649 18.684L115.434 9.31267C116.385 6.66477 114.48 5.42725 112.565 5.42725H101.981C101.524 5.42725 101.462 5.65885 101.327 5.91465L91.9283 28.3768H97.1827L100.155 21.6845C100.346 21.2593 100.74 21.2282 100.968 21.6845C101.196 22.1408 106.032 30.959 106.032 30.959H111.546L106.194 21.1003H107.695H107.698ZM102.765 15.808L104.988 10.647H108.186C109.005 10.647 109.489 11.169 109.167 12.2164L108.123 14.9887C107.764 15.7077 107.211 15.808 106.492 15.808H102.769H102.765Z" fill="#1D1D1B"/>
<path d="M84.8454 22.4375C83.4039 22.4375 82.5259 21.6217 83.0167 20.1525L88.3402 7.12394C88.6651 6.24246 89.2839 5.82073 90.4937 5.82073H98.5238L100.843 0.238037H89.4809C85.7268 0.238037 84.1886 1.93532 83.0824 4.45185L75.8024 22.0503C74.558 25.0197 76.4246 28.5145 80.0474 28.5145H90.4281L93.0414 22.4409H84.8488L84.8454 22.4375Z" fill="#1D1D1B"/>
<path d="M58.6529 5.70714H54.4079C53.6716 5.70714 53.6059 5.84196 53.4158 6.36739L48.9842 16.8898L48.082 6.32245C48.0267 5.94566 47.9437 5.7106 47.5151 5.7106H43.1734C42.7447 5.7106 42.5581 5.91801 42.4198 6.27751L35.0638 23.4508L34.7285 6.37084C34.7285 5.96986 34.5695 5.7106 33.9749 5.7106H29.9097C29.4673 5.7106 29.2391 5.85924 28.8381 6.30862L16.1379 22.8804H9.62535C9.09647 22.8804 8.95474 22.4207 9.29696 21.7501L18.1256 0.61185C18.2638 0.159012 18.212 0 17.9458 0H12.4634C12.0002 0 11.7271 0.356048 11.4713 0.850368L0.433776 26.5619C-0.0812844 27.7718 0.769084 28.5945 1.61254 28.5945H17.8905C18.3191 28.5945 18.5231 28.3421 18.8342 28.031L21.7725 24.156H29.6194L29.5952 28.031C29.5882 28.356 29.768 28.4562 30.3003 28.4562H37.9917C38.4756 28.4562 38.6035 28.1831 38.7937 27.8893L43.322 17.6953L44.1275 27.7925C44.2035 28.2315 44.3625 28.4562 44.7843 28.4562H49.0326C49.399 28.4562 49.6203 28.2557 49.7413 27.8893L59.0331 6.13924C59.244 5.86615 59.0435 5.71406 58.6563 5.71406L58.6529 5.70714ZM29.6505 19.7693H25.1013L29.692 13.7303L29.6505 19.7693Z" fill="#1D1D1B"/>
<path d="M72.7634 5.70654H62.196C61.7985 5.70654 61.6602 5.76531 61.5116 6.03839L52.4652 27.5707C52.2785 27.9544 52.3787 28.4314 53.0148 28.4521H63.3195C67.0424 28.4521 68.5738 27.5879 70.0844 24.3662L75.6982 10.6325C76.7629 7.8532 75.8848 5.71 72.7565 5.71L72.7634 5.70654ZM69.673 12.2744L65.7046 21.5559C64.9994 22.9628 64.2078 23.3015 63.0844 23.3015H59.9525L65.314 10.7396H69.0854C69.9703 10.7396 70.0705 11.2374 69.6765 12.2744H69.673Z" fill="#1D1D1B"/>
</svg>
