<svg width="412" height="68" viewBox="0 0 412 68" fill="none" xmlns="http://www.w3.org/2000/svg">
<path d="M76.159 3.34225C69.6465 1.25334 61.5121 0 52.7142 0C43.9161 0 35.7817 1.22877 29.2692 3.34225C11.9191 8.92085 0 20.4958 0 33.8894C0 52.7141 23.5924 68 52.7142 68C81.836 68 105.428 52.7387 105.428 33.8894C105.428 20.4958 93.5092 8.92085 76.159 3.34225ZM52.7142 53.3285C48.3643 53.3285 44.8254 44.7763 44.6043 34.0614C47.2093 34.3072 49.9372 34.43 52.7142 34.43C55.4912 34.43 58.1944 34.3072 60.824 34.0614C60.6028 44.8008 57.0639 53.3285 52.7142 53.3285ZM45.1695 25.6567C46.3491 18.1121 49.2981 12.7792 52.7142 12.7792C56.1301 12.7792 59.0792 18.1121 60.2588 25.6567C57.8504 25.8778 55.3191 26.0007 52.7142 26.0007C50.1091 26.0007 47.5779 25.8778 45.1695 25.6567ZM64.879 25.0915C63.1095 13.2706 58.3419 4.79219 52.7142 4.79219C47.0864 4.79219 42.2942 13.2706 40.5493 25.0915C29.8344 23.4203 22.3636 19.6111 22.3636 15.1876C22.3636 9.21575 35.9537 4.37441 52.7387 4.37441C69.5237 4.37441 83.0893 9.21575 83.0893 15.1876C83.0893 19.6111 75.5938 23.4203 64.9035 25.0915M7.69208 32.6361C7.69208 26.8608 9.90383 21.4543 13.7868 16.785C13.7376 17.1044 13.713 17.4239 13.713 17.768C13.713 25.0423 24.6245 31.2107 39.8366 33.4716C39.8366 34.0123 39.8366 34.5775 39.8366 35.1182C39.8366 48.6346 43.5721 60.0621 48.7575 63.9942C25.755 62.5934 7.69208 49.077 7.69208 32.6115M56.6953 63.9942C61.8807 60.0621 65.6162 48.6101 65.6162 35.1182C65.6162 34.553 65.6162 34.0123 65.6162 33.4716C80.8283 31.2107 91.7397 25.0177 91.7397 17.768C91.7397 17.4485 91.7152 17.1044 91.6661 16.785C95.549 21.4297 97.7608 26.8608 97.7608 32.6361C97.7608 49.1015 79.7225 62.618 56.6953 64.0187" fill="black"/>
<path d="M161.663 9.72754H119.934V18.9433H135.342V58.2885H146.279L146.254 18.9433H161.663V9.72754Z" fill="black"/>
<path d="M189.874 8.26221C175.646 8.26221 164.119 19.7881 164.119 34.0172C164.119 48.2463 175.646 59.7721 189.874 59.7721C204.104 59.7721 215.63 48.2463 215.63 34.0172C215.63 19.7881 204.104 8.26221 189.874 8.26221ZM202.481 41.8076C200.81 46.0591 197.001 49.2538 192.406 50.0649C191.594 50.2123 190.735 50.2861 189.874 50.2861C189.014 50.2861 188.154 50.2123 187.344 50.0649C182.723 49.2538 178.939 46.0591 177.267 41.8076C176.309 39.3992 175.793 36.7696 175.793 34.0172C175.793 31.2647 176.309 28.6352 177.267 26.2268C178.939 21.9752 182.747 18.7804 187.344 17.9694C188.154 17.8221 189.014 17.7483 189.874 17.7483C190.735 17.7483 191.594 17.8221 192.406 17.9694C197.026 18.7804 200.81 21.9752 202.481 26.2268C203.44 28.6352 203.956 31.2647 203.956 34.0172C203.956 36.7696 203.44 39.3992 202.481 41.8076Z" fill="black"/>
<path d="M215.779 9.72754H228.656L240.674 30.6166L252.716 9.72754H265.568L246.154 40.3238V58.2885H235.218V40.3238L215.779 9.72754Z" fill="black"/>
<path d="M265.771 34.0172C265.771 19.8126 277.297 8.26221 291.526 8.26221C305.755 8.26221 317.257 19.7881 317.257 34.0172C317.257 48.2463 305.73 59.7721 291.526 59.7721C277.322 59.7721 265.771 48.2463 265.771 34.0172ZM291.526 50.2861C292.386 50.2861 293.247 50.2123 294.058 50.0649C298.677 49.2538 302.463 46.0591 304.133 41.8076C305.092 39.3992 305.607 36.7696 305.607 34.0172C305.607 31.2647 305.092 28.6352 304.133 26.2268C302.463 21.9752 298.653 18.7804 294.058 17.9694C293.247 17.8221 292.386 17.7483 291.526 17.7483C290.666 17.7483 289.806 17.8221 288.995 17.9694C284.375 18.7804 280.566 21.9752 278.919 26.2268C277.96 28.6352 277.444 31.2647 277.444 34.0172C277.444 36.7696 277.96 39.3992 278.919 41.8076C280.59 46.0591 284.399 49.2538 288.995 50.0649C289.806 50.2123 290.666 50.2861 291.526 50.2861Z" fill="black"/>
<path d="M394.996 47.577H374.303L370.322 58.2673H358.182L377.867 9.68188H391.457L411.142 58.2673H399.001L394.996 47.577ZM391.826 39.074L384.674 19.8806L377.498 39.074H391.826Z" fill="black"/>
<path d="M361.376 9.72754H319.647V18.9433H335.056V58.2885H345.992L345.967 18.9433H361.376V9.72754Z" fill="black"/>
</svg>
