<svg width="39" height="30" viewBox="0 0 39 30" fill="none" xmlns="http://www.w3.org/2000/svg">
<path d="M5.4375 30C4.13433 30 3.02728 29.5491 2.11637 28.6474C1.20546 27.7453 0.75 26.6501 0.75 25.3619C0.75 24.271 1.08754 23.3113 1.76262 22.4828C2.4374 21.6543 3.28943 21.1151 4.31871 20.8654V9.13456C3.28943 8.88485 2.4374 8.34574 1.76262 7.51721C1.08754 6.68868 0.75 5.72897 0.75 4.63809C0.75 3.34985 1.2062 2.2547 2.1186 1.35265C3.031 0.450881 4.13879 0 5.44196 0C6.74513 0 7.85218 0.450881 8.76309 1.35265C9.674 2.2547 10.1295 3.34985 10.1295 4.63809C10.1295 5.72897 9.79207 6.68868 9.11729 7.51721C8.4422 8.34574 7.59003 8.88485 6.56075 9.13456V13.8913H18.3705V9.13456C17.3412 8.88485 16.489 8.34574 15.814 7.51721C15.1392 6.68868 14.8018 5.72897 14.8018 4.63809C14.8018 3.34985 15.258 2.2547 16.1704 1.35265C17.0828 0.450881 18.1906 0 19.4938 0C20.7969 0 21.904 0.450881 22.8149 1.35265C23.7258 2.2547 24.1813 3.34985 24.1813 4.63809C24.1813 5.72897 23.8439 6.68868 23.1691 7.51721C22.494 8.34574 21.6418 8.88485 20.6125 9.13456V13.8913H29.9916C30.6806 13.8913 31.2608 13.6521 31.7322 13.1735C32.2039 12.695 32.4397 12.1274 32.4397 11.4706V9.13456C31.4101 8.88485 30.5579 8.34574 29.8832 7.51721C29.2084 6.68868 28.871 5.72897 28.871 4.63809C28.871 3.34985 29.327 2.2547 30.2391 1.35265C31.1515 0.450881 32.2593 0 33.5625 0C34.866 0 35.973 0.450881 36.8836 1.35265C37.7945 2.2547 38.25 3.34985 38.25 4.63809C38.25 5.72897 37.9126 6.68868 37.2378 7.51721C36.563 8.34574 35.7109 8.88485 34.6813 9.13456V11.4706C34.6813 12.7509 34.2254 13.844 33.3136 14.7499C32.4018 15.6557 31.2944 16.1087 29.9916 16.1087H20.6125V20.8654C21.6418 21.1151 22.494 21.6543 23.1691 22.4828C23.8439 23.3113 24.1813 24.271 24.1813 25.3619C24.1813 26.6501 23.7251 27.7453 22.8127 28.6474C21.9003 29.5491 20.7925 30 19.4893 30C18.1861 30 17.0791 29.5491 16.1682 28.6474C15.2573 27.7453 14.8018 26.6501 14.8018 25.3619C14.8018 24.271 15.1392 23.3113 15.814 22.4828C16.489 21.6543 17.3412 21.1151 18.3705 20.8654V16.1087H6.56075V20.8654C7.59003 21.1151 8.4422 21.6543 9.11729 22.4828C9.79207 23.3113 10.1295 24.271 10.1295 25.3619C10.1295 26.6501 9.67326 27.7453 8.76086 28.6474C7.84876 29.5491 6.74097 30 5.4375 30ZM5.43973 27.7826C6.10381 27.7826 6.67778 27.5496 7.16163 27.0834C7.64549 26.6172 7.88742 26.0434 7.88742 25.3619C7.88742 24.7051 7.65218 24.1375 7.18171 23.659C6.71123 23.1804 6.13236 22.9412 5.44508 22.9412C4.75751 22.9412 4.1767 23.1804 3.70266 23.659C3.22891 24.1375 2.99204 24.71 2.99204 25.3765C2.99204 26.0432 3.22773 26.611 3.69909 27.0799C4.17046 27.5484 4.75067 27.7826 5.43973 27.7826ZM5.43973 7.05882C6.10381 7.05882 6.67778 6.82618 7.16163 6.36088C7.64549 5.89559 7.88742 5.32309 7.88742 4.64338C7.88742 3.96338 7.65218 3.38897 7.18171 2.92015C6.71123 2.45162 6.13236 2.21735 5.44508 2.21735C4.75751 2.21735 4.1767 2.45044 3.70266 2.91662C3.22891 3.38279 2.99204 3.95662 2.99204 4.63809C2.99204 5.29485 3.22773 5.8625 3.69909 6.34103C4.17046 6.81956 4.75067 7.05882 5.43973 7.05882ZM19.4915 27.7826C20.1556 27.7826 20.7296 27.5496 21.2134 27.0834C21.6973 26.6172 21.9392 26.0434 21.9392 25.3619C21.9392 24.7051 21.6973 24.1375 21.2134 23.659C20.7296 23.1804 20.1556 22.9412 19.4915 22.9412C18.8274 22.9412 18.2535 23.1804 17.7696 23.659C17.2858 24.1375 17.0438 24.71 17.0438 25.3765C17.0438 26.0432 17.2858 26.611 17.7696 27.0799C18.2535 27.5484 18.8274 27.7826 19.4915 27.7826ZM19.4915 7.05882C20.1556 7.05882 20.7296 6.82618 21.2134 6.36088C21.6973 5.89559 21.9392 5.32309 21.9392 4.64338C21.9392 3.96338 21.6973 3.38897 21.2134 2.92015C20.7296 2.45162 20.1556 2.21735 19.4915 2.21735C18.8274 2.21735 18.2535 2.45 17.7696 2.91529C17.2858 3.3803 17.0438 3.95279 17.0438 4.63279C17.0438 5.31279 17.2858 5.88721 17.7696 6.35603C18.2535 6.82456 18.8274 7.05882 19.4915 7.05882ZM33.5754 7.05882C34.2493 7.05882 34.8233 6.82618 35.2973 6.36088C35.7714 5.89559 36.0084 5.32309 36.0084 4.64338C36.0084 3.96338 35.7726 3.38897 35.3009 2.92015C34.8295 2.45162 34.2493 2.21735 33.5603 2.21735C32.8962 2.21735 32.3222 2.45 31.8384 2.91529C31.3545 3.3803 31.1126 3.95279 31.1126 4.63279C31.1126 5.31279 31.3545 5.88721 31.8384 6.35603C32.3222 6.82456 32.9012 7.05882 33.5754 7.05882Z" fill="#CF2D1E"/>
</svg>
