<svg width="385" height="109" viewBox="0 0 385 109" fill="none" xmlns="http://www.w3.org/2000/svg">
<g clip-path="url(#clip0_2004_848)">
<path d="M69.7041 2.80763C63.9013 1.03065 56.6832 0 48.8282 0C40.9732 0 33.7551 1.03065 27.9524 2.80763C12.5255 7.46332 1.91064 17.2012 1.91064 28.4317C1.91064 44.2113 22.928 57.0411 48.8282 57.0411C74.7284 57.0411 95.7458 44.2468 95.7458 28.4317C95.7458 17.2012 85.1309 7.49886 69.7041 2.80763ZM48.8282 44.7088C44.9715 44.7088 41.787 37.5298 41.6101 28.5383C43.9454 28.7515 46.3514 28.8582 48.8282 28.8582C51.305 28.8582 53.711 28.7515 56.0463 28.5383C55.8694 37.5298 52.6849 44.7088 48.8282 44.7088ZM42.1055 21.5015C43.167 15.1754 45.7853 10.6974 48.8282 10.6974C51.8711 10.6974 54.4895 15.1754 55.5509 21.5015C53.3926 21.6792 51.1635 21.7858 48.8282 21.7858C46.493 21.7858 44.2638 21.6792 42.1055 21.5015ZM59.6553 21.0395C58.0985 11.1239 53.8172 4.01598 48.8282 4.01598C43.8392 4.01598 39.5579 11.1239 38.0011 21.0395C28.4831 19.6534 21.7958 16.4548 21.7958 12.7232C21.7958 7.7121 33.8967 3.66058 48.8282 3.66058C63.7597 3.66058 75.8607 7.7121 75.8607 12.7232C75.8607 16.4548 69.2087 19.6179 59.6553 21.0395ZM8.73952 27.3655C8.73952 22.5321 10.721 17.983 14.1531 14.0737C14.1177 14.358 14.0823 14.6068 14.0823 14.8911C14.0823 20.9684 23.7772 26.1572 37.3288 28.0763C37.3288 28.5383 37.3288 29.0003 37.3288 29.4623C37.3288 40.7995 40.6548 50.3596 45.2546 53.7004C24.7679 52.5275 8.70414 41.1904 8.70414 27.401M52.2957 53.7004C56.8955 50.3952 60.2215 40.7995 60.2215 29.4623C60.2215 29.0003 60.2215 28.5383 60.2215 28.0763C73.7731 26.1572 83.4679 21.0039 83.4679 14.8911C83.4679 14.6068 83.4679 14.358 83.3972 14.0737C86.8293 17.983 88.8108 22.5321 88.8108 27.3655C88.8108 41.1549 72.747 52.492 52.2603 53.6648" fill="white"/>
<path d="M145.813 8.13855H108.661V15.8862H122.354V48.9025H132.084V15.8862H145.813V8.13855Z" fill="white"/>
<path d="M170.899 6.93018C158.232 6.93018 147.971 16.597 147.971 28.5027C147.971 40.4085 158.232 50.0753 170.899 50.0753C183.566 50.0753 193.827 40.4085 193.827 28.5027C193.827 16.597 183.566 6.93018 170.899 6.93018ZM182.115 35.042C180.629 38.596 177.232 41.297 173.128 41.9722C172.385 42.0789 171.642 42.1499 170.863 42.1499C170.085 42.1499 169.342 42.0789 168.599 41.9722C164.494 41.297 161.098 38.6315 159.612 35.042C158.762 33.0163 158.302 30.8128 158.302 28.5027C158.302 26.1927 158.762 23.9892 159.612 21.9634C161.098 18.4095 164.494 15.744 168.599 15.0332C169.307 14.891 170.085 14.8555 170.863 14.8555C171.642 14.8555 172.385 14.9266 173.128 15.0332C177.232 15.7085 180.629 18.3739 182.115 21.9634C182.964 23.9892 183.424 26.1927 183.424 28.5027C183.424 30.8128 182.964 33.0163 182.115 35.042Z" fill="white"/>
<path d="M193.968 8.13855H205.432L216.118 25.6596L226.839 8.13855H238.267L220.965 33.7982V48.867H211.27V33.7982L193.968 8.13855Z" fill="white"/>
<path d="M238.444 28.5027C238.444 16.597 248.705 6.93018 261.372 6.93018C274.039 6.93018 284.265 16.597 284.265 28.5027C284.265 40.4085 274.004 50.0753 261.372 50.0753C248.741 50.0753 238.444 40.4085 238.444 28.5027ZM261.372 42.1499C262.151 42.1499 262.894 42.0789 263.637 41.9722C267.741 41.297 271.138 38.6315 272.624 35.042C273.473 33.0163 273.933 30.8128 273.933 28.5027C273.933 26.1927 273.473 23.9892 272.624 21.9634C271.138 18.4095 267.741 15.7085 263.637 15.0332C262.894 14.9266 262.151 14.8555 261.372 14.8555C260.594 14.8555 259.851 14.9266 259.108 15.0332C255.003 15.7085 251.607 18.3739 250.121 21.9634C249.271 23.9892 248.811 26.1927 248.811 28.5027C248.811 30.8128 249.271 33.0163 250.121 35.042C251.607 38.596 255.003 41.297 259.108 41.9722C259.851 42.0789 260.594 42.1499 261.372 42.1499Z" fill="white"/>
<path d="M353.474 39.8754H335.075L331.537 48.8314H320.709L338.224 8.10303H350.325L367.839 48.8314H357.012L353.474 39.8754ZM350.643 32.732L344.274 16.6325L337.906 32.732H350.643Z" fill="white"/>
<path d="M323.54 8.13855H286.388V15.8862H300.117V48.9025H309.847V15.8862H323.54V8.13855Z" fill="white"/>
<path d="M78.2668 79.2533L74.7993 87.996H81.6636L78.3022 79.2533H78.2668Z" fill="white"/>
<path d="M162.619 79.431L159.152 88.1738H166.051L162.655 79.431H162.619Z" fill="white"/>
<path d="M0 62.4786V109H385V62.4786H0ZM30.5707 78.3648H18.7883V83.3404H29.12V87.2497H18.7883V96.5611H13.87V74.4555H30.5707V78.3648ZM38.7088 96.3479H33.8259V74.2778H38.7088V96.3479ZM63.3352 96.3479H57.9216L47.4129 80.6038H47.3422V96.3479H42.2824V74.2778H47.979L58.2047 89.6664H58.3108V74.2778H63.3352V96.3479ZM84.9894 96.3479L83.2911 91.7988H73.2777L71.4025 96.3479H65.4935L75.0823 74.2778H81.5927L91.1107 96.3479H84.9894ZM113.897 96.5611H108.484L97.9749 80.8171H97.8688V96.5611H92.8444V74.4555H98.541L108.767 89.8441H108.873V74.4555H113.897V96.5611ZM128.51 93.1493C131.482 93.1493 133.57 91.7277 134.171 88.9912H139.514C138.417 93.789 134.808 97.1298 128.404 97.1298C121.575 97.1298 116.692 93.1849 116.692 85.5438C116.692 77.9028 121.858 73.8869 128.475 73.8869C136.153 73.8869 139.231 78.4359 139.514 81.67H134.171C133.712 80.3551 132.898 77.8673 128.51 77.8673C125.963 77.8673 122.177 79.3244 122.177 85.5794C122.177 89.5598 123.981 93.1493 128.51 93.1493ZM147.122 96.5611H142.239V74.4555H147.122V96.5611ZM169.342 96.5611L167.644 92.0121H157.666L155.79 96.5611H149.881L159.47 74.4555H165.981L175.463 96.5611H169.342ZM193.898 96.5611H177.338V74.4555H182.257V92.5452H193.898V96.5611ZM216.896 96.9521C207.449 96.9521 205.857 92.3319 205.857 89.5954H211.023C211.023 90.8392 211.801 93.1849 216.507 93.1849C219.09 93.1849 221.921 92.6162 221.921 90.3062C221.921 88.6003 219.975 88.1027 217.215 87.6051L214.49 87.001C210.28 86.1836 206.246 85.3661 206.246 80.4972C206.246 78.045 207.768 73.7092 216.189 73.7092C224.079 73.7092 226.237 78.1161 226.237 80.8526H221.072C220.895 79.8575 220.47 77.5119 215.8 77.5119C213.747 77.5119 211.306 78.1871 211.306 80.1774C211.306 81.9188 212.934 82.2742 214.03 82.4874L220.293 83.7669C223.867 84.5487 227.087 85.7571 227.087 89.7375C227.087 96.3834 219.161 96.9521 216.932 96.9521H216.896ZM246.901 96.5611H229.103V74.4555H246.37V78.3648H233.916V82.985H245.344V86.8944H233.916V92.6518H246.901V96.5256V96.5611ZM263.814 96.5611C263.708 96.2057 259.497 87.8895 259.497 87.8895H254.438V96.5611H249.626V74.4555H261.479C267.706 74.4555 269.617 78.4715 269.617 81.3857C269.617 86.0414 267.954 86.8233 265.229 87.8539C265.229 87.8539 269.617 96.3834 270.006 96.4901L263.849 96.5611H263.814ZM286.565 96.5611H279.312L270.041 74.4555H276.446L282.921 91.1946H282.991L289.537 74.4555H295.694L286.565 96.5611ZM303.266 96.3479H298.383V74.2778H303.266V96.3479ZM317.95 92.9361C320.886 92.9361 322.974 91.5145 323.611 88.8135H328.954C327.892 93.5758 324.248 96.9521 317.844 96.9521C311.015 96.9521 306.132 92.9716 306.132 85.3662C306.132 77.7607 311.298 73.7092 317.914 73.7092C325.557 73.7092 328.671 78.2582 328.954 81.4923H323.611C323.186 80.1418 322.372 77.6896 317.95 77.6896C315.367 77.6896 311.581 79.1467 311.581 85.4017C311.581 89.3821 313.385 92.9361 317.95 92.9361ZM349.794 96.5256H331.997V74.42H349.228V78.3293H336.809V82.9495H348.237V86.8588H336.809V92.6162H349.794V96.4901V96.5256ZM362.284 97.0942C352.837 97.0942 351.245 92.4741 351.245 89.7375H356.411C356.411 90.9814 357.154 93.327 361.86 93.327C364.443 93.327 367.273 92.7939 367.273 90.4483C367.273 88.7424 365.292 88.2804 362.567 87.7473L359.807 87.1787C355.632 86.3257 351.599 85.5438 351.599 80.7105C351.599 78.2227 353.156 73.9224 361.541 73.9224C369.432 73.9224 371.555 78.3293 371.59 81.0303H366.424C366.247 80.0352 365.823 77.6896 361.117 77.6896C359.064 77.6896 356.623 78.3648 356.623 80.3551C356.623 82.061 358.286 82.4874 359.348 82.6651L365.61 83.9801C369.184 84.7264 372.404 85.9348 372.404 89.9152C372.404 96.5611 364.478 97.1298 362.249 97.1298L362.284 97.0942Z" fill="white"/>
<path d="M260.523 78.2583H254.438V84.1579H260.169C262.717 84.1579 263.955 83.3405 263.955 81.137C263.955 79.9642 263.389 78.2583 260.523 78.2583Z" fill="white"/>
</g>
<defs>
<clipPath id="clip0_2004_848">
<rect width="385" height="109" fill="white"/>
</clipPath>
</defs>
</svg>
