<svg width="76" height="76" viewBox="0 0 76 76" fill="none" xmlns="http://www.w3.org/2000/svg">
<path d="M67.1825 15.2394C66.804 15.9333 66.2679 16.5326 65.574 16.9741C65.1324 17.8257 64.47 18.5827 63.6184 19.0874C67.5295 24.4178 69.8636 31.0099 69.8636 38.1382C69.8636 55.9905 55.3862 70.4678 37.5339 70.4678C19.6817 70.4678 5.20431 55.9905 5.20431 38.1382C5.20431 20.286 19.6817 5.80859 37.5339 5.80859C41.5712 5.80859 45.4192 6.56558 48.9834 7.92184C49.2357 6.59712 49.8665 5.36701 50.9389 4.5154C51.0966 4.10537 51.2859 3.69534 51.5382 3.34838C47.2171 1.61362 42.4859 0.604309 37.5339 0.604309C16.8114 0.604309 0 17.4157 0 38.1382C0 58.8607 16.8114 75.6721 37.5339 75.6721C58.2564 75.6721 75.0678 58.8607 75.0678 38.1382C75.0678 29.496 72.1345 21.5476 67.2141 15.1763L67.1825 15.2394Z" fill="black"/>
<mask id="mask0_2147_979" style="mask-type:alpha" maskUnits="userSpaceOnUse" x="15" y="15" width="46" height="45">
<circle cx="37.8672" cy="37.5" r="22.5" fill="#D9D9D9"/>
</mask>
<g mask="url(#mask0_2147_979)">
<path d="M26.9068 35.2583C27.0014 34.9744 27.0961 34.7221 27.2222 34.5013C27.3484 34.2805 27.5061 34.0913 27.6638 33.9336C27.8531 33.7759 28.0738 33.6812 28.3262 33.5866C28.5785 33.492 28.8939 33.4604 29.2409 33.4604C29.5878 33.4604 29.8717 33.492 30.124 33.5866C30.3763 33.6497 30.5656 33.7759 30.7548 33.9336C30.9125 34.0913 31.0703 34.249 31.1649 34.4698C31.2595 34.6906 31.3857 34.9113 31.4487 35.1952L33.6566 42.4812L31.7642 42.8912L30.9441 40.1156H27.38L26.5599 42.8912L24.7305 42.4812L26.9068 35.2583ZM30.5025 38.5386L29.6509 35.5106C29.5878 35.3529 29.5247 35.2268 29.4616 35.1637C29.3986 35.1006 29.3039 35.069 29.2093 35.069C29.1147 35.069 29.0201 35.069 28.9254 35.1637C28.8624 35.2268 28.7993 35.3214 28.7362 35.4791L27.8215 38.507H30.471L30.5025 38.5386Z" fill="black"/>
<path d="M34.918 33.6161H38.5137C38.9552 33.6161 39.3653 33.6476 39.7438 33.7423C40.1222 33.8369 40.4376 33.963 40.7215 34.1523C41.0054 34.3415 41.2261 34.5623 41.3839 34.8777C41.5416 35.1616 41.6362 35.5086 41.6362 35.9186C41.6362 36.1394 41.6362 36.3602 41.5416 36.5494C41.4785 36.7387 41.4154 36.9279 41.2892 37.0856C41.1946 37.2433 41.0684 37.401 40.9423 37.5272C40.8161 37.6533 40.69 37.748 40.5638 37.8426C40.7531 37.9057 40.9423 38.0318 41.1316 38.158C41.3208 38.2842 41.4785 38.4419 41.6047 38.6311C41.7308 38.8204 41.857 39.0096 41.9516 39.2619C42.0462 39.4827 42.0778 39.7351 42.0778 40.0505C42.0778 40.492 42.0147 40.8705 41.857 41.2175C41.6993 41.5644 41.4785 41.8483 41.1946 42.0691C40.9107 42.2899 40.5638 42.4791 40.1853 42.6053C39.8068 42.7315 39.3652 42.7945 38.8921 42.7945H34.918V33.7423V33.6161ZM38.3559 37.2749C38.7344 37.2749 39.0499 37.1802 39.3022 37.0225C39.5545 36.8648 39.6807 36.581 39.6807 36.2025C39.6807 35.824 39.5545 35.5086 39.2706 35.3824C38.9867 35.2562 38.5767 35.1931 38.0405 35.1931H36.7789V37.2749H38.3559ZM38.7344 41.1229C39.1129 41.1229 39.4599 41.0282 39.7122 40.839C39.9645 40.6498 40.1222 40.3659 40.1222 39.9558C40.1222 39.7351 40.0907 39.5143 39.9961 39.3566C39.9015 39.1989 39.7753 39.0727 39.6491 38.9781C39.4914 38.8835 39.3337 38.8204 39.1129 38.7888C38.8922 38.7573 38.6713 38.7257 38.4506 38.7257H36.8104V41.0598H38.7344V41.1229Z" fill="black"/>
<path d="M43.4666 40.6162C44.539 41.0578 45.5168 41.2786 46.4315 41.2786C47.1254 41.2786 47.5985 41.1839 47.9139 40.9632C48.2294 40.7424 48.387 40.4585 48.387 40.1115C48.387 39.9223 48.3555 39.7331 48.2609 39.6069C48.1663 39.4807 48.0401 39.3546 47.8824 39.2599C47.7247 39.1653 47.5039 39.1022 47.2831 39.0391C47.0308 38.9761 46.7785 38.913 46.4946 38.8814C46.1161 38.8184 45.7376 38.7237 45.3591 38.6291C44.9806 38.5345 44.6652 38.3768 44.3814 38.1875C44.0975 37.9983 43.8452 37.746 43.6875 37.4306C43.4982 37.1151 43.4035 36.7366 43.4035 36.2951C43.4035 35.885 43.4667 35.5065 43.5928 35.1911C43.719 34.8442 43.9398 34.5603 44.2552 34.308C44.539 34.0557 44.9491 33.8664 45.4222 33.7087C45.8953 33.5825 46.463 33.4879 47.1569 33.4879C47.7562 33.4879 48.324 33.551 48.8602 33.6772C49.3964 33.8033 49.8695 33.961 50.2795 34.1187L49.8064 35.6643C49.3018 35.475 48.8286 35.3488 48.387 35.2542C47.9455 35.1596 47.5039 35.0965 47.0623 35.0965C46.4946 35.0965 46.053 35.1911 45.8007 35.3488C45.5168 35.5065 45.3907 35.7589 45.3907 36.1058C45.3907 36.4528 45.5484 36.7051 45.8638 36.8628C46.1792 37.0205 46.6208 37.1467 47.1885 37.2413C47.567 37.3044 47.9455 37.399 48.3555 37.5252C48.734 37.6198 49.081 37.7775 49.3964 37.9983C49.7118 38.1875 49.9641 38.4714 50.1534 38.7868C50.3426 39.1022 50.4372 39.5123 50.4372 40.0485C50.4372 40.49 50.3426 40.9001 50.1849 41.247C50.0272 41.594 49.7749 41.9094 49.4279 42.1617C49.1125 42.414 48.7025 42.6033 48.1978 42.761C47.7247 42.8872 47.157 42.9818 46.5261 42.9818C46.1476 42.9818 45.7692 42.9818 45.4222 42.9187C45.0753 42.8872 44.7598 42.8241 44.4444 42.761C44.1605 42.6979 43.8767 42.6348 43.6559 42.5402C43.4036 42.4456 43.2143 42.3825 43.0566 42.3194L43.5928 40.7108L43.4666 40.6162Z" fill="black"/>
<path d="M37.5341 55.8446C27.7879 55.8446 19.8711 47.9278 19.8711 38.1816C19.8711 28.4354 27.7879 20.5186 37.5341 20.5186C47.2803 20.5186 55.1971 28.4354 55.1971 38.1816C55.1971 47.9278 47.2803 55.8446 37.5341 55.8446ZM37.5341 22.0325C28.6395 22.0325 21.4166 29.2554 21.4166 38.15C21.4166 47.0446 28.6395 54.2991 37.5341 54.2991C46.4287 54.2991 53.6516 47.0762 53.6516 38.15C53.6516 29.2239 46.4287 22.0325 37.5341 22.0325Z" fill="black"/>
<path d="M51.5702 53.2849L50.5293 52.1494C54.3458 48.5537 56.5537 43.5071 56.5537 38.2713C56.5537 33.4455 54.7242 28.809 51.444 25.2764L52.5794 24.2355C56.1436 28.052 58.1307 33.0355 58.1307 38.2713C58.1307 43.9487 55.7651 49.4053 51.6017 53.2849H51.5702Z" fill="black"/>
<path d="M23.3104 53.006C19.2416 49.0949 16.9707 43.8276 16.9707 38.1817C16.9707 33.1667 18.8001 28.3094 22.1434 24.556L23.2789 25.5653C20.1879 29.0348 18.4847 33.5136 18.4847 38.1817C18.4847 43.4175 20.5664 48.2749 24.3513 51.9021L23.2789 53.006H23.3104Z" fill="black"/>
</g>
</svg>
