<svg width="23" height="30" viewBox="0 0 23 30" fill="none" xmlns="http://www.w3.org/2000/svg">
<path d="M11.4994 15.0196C10.5025 15.0196 9.6508 14.6661 8.94429 13.9591C8.23753 13.252 7.88414 12.3999 7.88414 11.4028C7.88414 10.4058 8.23765 9.55412 8.94467 8.84761C9.65169 8.14085 10.5038 7.78746 11.501 7.78746C12.4979 7.78746 13.3496 8.14097 14.0561 8.84799C14.7629 9.55501 15.1163 10.4071 15.1163 11.4043C15.1163 12.4012 14.7627 13.2529 14.0557 13.9594C13.3487 14.6662 12.4966 15.0196 11.4994 15.0196ZM3.20984 30V19.2047C2.16097 18.1403 1.37996 16.9337 0.866797 15.5848C0.353385 14.2356 0.0966797 12.8419 0.0966797 11.4035C0.0966797 8.19938 1.19598 5.49777 3.39458 3.29866C5.59318 1.09955 8.29429 0 11.4979 0C14.7015 0 17.4034 1.09955 19.6035 3.29866C21.8037 5.49777 22.9037 8.19938 22.9037 11.4035C22.9037 12.8419 22.647 14.2356 22.1336 15.5848C21.6204 16.9337 20.8394 18.1403 19.7906 19.2047V30L11.5002 27.3544L3.20984 30ZM11.4991 20.8966C14.147 20.8966 16.3913 19.9766 18.2321 18.1365C20.0729 16.2965 20.9933 14.0526 20.9933 11.4047C20.9933 8.75676 20.0732 6.51242 18.2332 4.67164C16.3932 2.83086 14.1492 1.91047 11.5013 1.91047C8.85344 1.91047 6.6091 2.83048 4.76832 4.6705C2.92754 6.51052 2.00715 8.75448 2.00715 11.4024C2.00715 14.0503 2.92716 16.2946 4.76718 18.1354C6.6072 19.9762 8.85116 20.8966 11.4991 20.8966ZM5.11993 27.3042L11.5002 25.4154L17.8805 27.3042V20.7856C16.9479 21.464 15.9315 21.9704 14.8312 22.3049C13.7311 22.6397 12.6198 22.807 11.4972 22.807C10.3745 22.807 9.2641 22.6397 8.16581 22.3049C7.06778 21.9704 6.05248 21.464 5.11993 20.7856V27.3042Z" fill="#CF2D1E"/>
</svg>
