<svg width="22" height="22" viewBox="0 0 22 22" fill="none" xmlns="http://www.w3.org/2000/svg">
<path d="M6.16432 9.6776C6.70052 9.6776 7.0475 9.89839 7.42599 10.2769C7.77295 10.6238 8.15144 10.9708 8.46686 11.3493C8.71918 11.6331 9.06611 12.1693 9.47615 12.0432C9.85464 11.9486 10.3593 11.4124 10.6116 11.1285C11.7471 9.96147 12.7249 8.88907 13.8919 7.72205C14.3019 7.31202 14.6804 6.8389 15.1851 6.52349C15.8159 6.11346 16.6675 6.20808 17.1091 6.74428C17.4876 7.21739 17.4561 8.069 16.9829 8.54212C15.5321 10.0246 14.0496 11.4754 12.5672 12.9579C12.031 13.4941 11.4948 14.0618 10.9271 14.598C9.82312 15.6389 9.06612 15.6073 7.96219 14.598C7.36291 14.0303 6.7636 13.4625 6.16432 12.8948C5.62812 12.3586 4.99734 11.8224 4.87117 11.0339C4.77655 10.2453 5.37579 9.61452 6.16432 9.64606V9.6776Z" fill="black"/>
<path d="M10.888 21.566C5.116 21.6291 0.164062 16.8349 0.164062 10.7159C0.164062 4.94388 5.05295 0.149631 10.825 0.086549C16.8493 0.0234668 21.7066 4.84926 21.7066 10.9051C21.7066 16.898 16.5654 21.7553 10.888 21.566ZM11.0142 19.8628C15.8085 20.0836 19.9403 15.8571 20.0349 10.9998C20.1295 5.82703 15.6508 1.6636 10.7304 1.78977C6.03073 1.91593 1.89885 5.82703 1.86731 10.8736C1.86731 15.9202 5.90452 19.8628 10.9826 19.8628H11.0142Z" fill="black"/>
</svg>
