<svg width="76" height="76" viewBox="0 0 76 76" fill="none" xmlns="http://www.w3.org/2000/svg">
<path d="M68.0458 15.2394C67.6673 15.9333 67.1311 16.5326 66.4372 16.9741C65.9957 17.8257 65.3333 18.5827 64.4817 19.0874C68.3928 24.4178 70.7268 31.0099 70.7268 38.1382C70.7268 55.9905 56.2495 70.4678 38.3972 70.4678C20.545 70.4678 6.06759 55.9905 6.06759 38.1382C6.06759 20.286 20.545 5.80859 38.3972 5.80859C42.4345 5.80859 46.2825 6.56558 49.8466 7.92184C50.099 6.59712 50.7298 5.36701 51.8022 4.5154C51.9599 4.10537 52.1491 3.69534 52.4015 3.34838C48.0803 1.61362 43.3492 0.604309 38.3972 0.604309C17.6747 0.604309 0.863281 17.4157 0.863281 38.1382C0.863281 58.8607 17.6747 75.6721 38.3972 75.6721C59.1197 75.6721 75.9311 58.8607 75.9311 38.1382C75.9311 29.496 72.9978 21.5476 68.0774 15.1763L68.0458 15.2394Z" fill="black"/>
<mask id="mask0_2147_1062" style="mask-type:alpha" maskUnits="userSpaceOnUse" x="15" y="15" width="46" height="48">
<ellipse cx="38.4316" cy="39" rx="22.5" ry="24" fill="#D9D9D9"/>
</mask>
<g mask="url(#mask0_2147_1062)">
<path d="M25.0229 35.9571L24.9283 37.8495C24.9283 38.228 25.3068 38.575 25.8114 38.575H29.0917C29.3125 38.575 29.5648 38.5119 29.7225 38.3542C29.9118 38.228 30.0064 38.0388 30.0064 37.8495L30.0695 35.9886H46.3131L46.25 37.8495C46.25 38.228 46.6286 38.575 47.1332 38.575H50.4135C50.4135 38.575 50.4766 38.575 50.5081 38.575C50.7289 38.575 50.9182 38.4804 51.0759 38.3542C51.2651 38.228 51.3597 38.0388 51.3597 37.8495L51.4544 35.9571C51.9275 35.9255 52.2744 35.6101 52.306 35.2632L52.5583 29.1127C52.5583 29.1127 52.5267 28.8603 52.4321 28.7342L50.5712 26.2424L48.8049 19.9027C48.7103 19.5872 48.3633 19.3665 47.9533 19.3665H29.8803C29.4702 19.3665 29.0917 19.5872 28.9971 19.9027L26.7261 26.2424L24.6444 28.7342C24.6444 28.7342 24.4867 28.9865 24.4867 29.1127L24.2344 35.2632C24.2344 35.6417 24.5813 35.9255 25.0229 35.9571ZM46.3131 21.732L47.3855 26.1162H29.9433L31.3627 21.732H46.3131Z" fill="black"/>
<path d="M56.2504 47.4094C55.6511 45.4538 52.8755 44.413 49.3114 43.2144C48.8067 43.0567 48.7121 42.8675 48.649 42.6782C48.3651 41.6689 49.816 39.6187 51.0777 38.2625L47.9866 38.3255C47.6081 38.3255 47.2612 38.1994 47.0089 38.0101C45.8418 39.5241 44.6117 41.6058 45.1164 43.4037C45.4318 44.5076 46.3465 45.3592 47.7659 45.8323C49.2798 46.337 52.4655 47.4094 52.7178 48.1979C52.7809 48.3872 52.5601 48.7656 52.1501 49.2072C49.6583 51.7936 47.6397 53.4337 47.6082 53.4337C46.8827 54.0015 46.8512 54.9162 47.5451 55.4524C47.9235 55.7678 48.4597 55.8939 48.9644 55.8309C49.3744 55.7993 49.7845 55.6416 50.0999 55.3893C50.1945 55.3262 52.3393 53.623 54.9888 50.8474C56.1558 49.6488 56.5658 48.4818 56.2189 47.4094H56.2504Z" fill="black"/>
<path d="M27.0423 44.41C26.6638 44.2839 26.5377 44.1262 26.4746 43.9054C26.1276 42.6753 28.0201 40.0574 29.5656 38.4488H26.5061C26.1276 38.4488 25.7807 38.3226 25.5283 38.1018C24.0775 39.8681 22.3427 42.5176 22.942 44.5993C23.2574 45.6717 24.109 46.5233 25.4337 46.9964C26.9477 47.5326 30.1018 48.6681 30.3226 49.4566C30.3857 49.6459 30.1649 50.0243 29.7233 50.4659C27.2 52.9892 25.1183 54.5663 25.0868 54.5978C24.3613 55.1655 24.3298 56.0487 24.9922 56.6164C25.3706 56.9318 25.9068 57.058 26.4115 57.0265C26.8215 57.0265 27.2316 56.8688 27.547 56.6164C27.6416 56.5534 29.8179 54.8817 32.5305 52.1691C33.6975 51.0021 34.1706 49.8351 33.8552 48.7627C33.319 46.8072 30.5434 45.6717 27.0108 44.41H27.0423Z" fill="black"/>
</g>
</svg>
