<svg width="22" height="22" viewBox="0 0 22 22" fill="none" xmlns="http://www.w3.org/2000/svg">
<path d="M10.7243 21.4792C4.95207 21.5423 0 16.7483 0 10.6295C0 4.85775 4.88902 0.0636911 10.6612 0.000611435C16.6857 -0.0624683 21.5431 4.76313 21.5431 10.8188C21.5431 16.8113 16.4018 21.6685 10.7243 21.4792ZM10.8505 19.7761C15.6448 19.9969 19.7768 15.7705 19.8714 10.9134C19.966 5.74086 15.4871 1.5776 10.5666 1.70376C5.86683 1.82992 1.73484 5.74086 1.70329 10.7872C1.70329 15.8336 5.74062 19.7761 10.8189 19.7761H10.8505Z" fill="black"/>
<path d="M15.2111 6.35216L15.1442 6.28525C14.7377 5.87879 14.0787 5.87882 13.6722 6.28528L6.33432 13.6227C5.92782 14.0291 5.92779 14.6881 6.33429 15.0946L6.40119 15.1615C6.80768 15.5679 7.46677 15.568 7.87327 15.1615L15.2111 7.82413C15.6176 7.41767 15.6176 6.75862 15.2111 6.35216Z" fill="black"/>
<path d="M15.16 15.1774L15.2269 15.1105C15.6334 14.704 15.6334 14.0451 15.2269 13.6386L7.889 6.30123C7.48251 5.89477 6.82349 5.89474 6.417 6.3012L6.35009 6.36811C5.9436 6.77457 5.94356 7.43362 6.35005 7.84008L13.6879 15.1775C14.0944 15.5839 14.7535 15.5839 15.16 15.1774Z" fill="black"/>
</svg>
