<svg width="76" height="76" viewBox="0 0 76 76" fill="none" xmlns="http://www.w3.org/2000/svg">
<path d="M67.1826 15.2394C66.8041 15.9333 66.2679 16.5326 65.574 16.9741C65.1324 17.8257 64.4701 18.5827 63.6184 19.0874C67.5295 24.4178 69.8635 31.0099 69.8635 38.1382C69.8635 55.9905 55.3862 70.4678 37.5339 70.4678C19.6816 70.4678 5.20426 55.9905 5.20426 38.1382C5.20426 20.286 19.6816 5.80859 37.5339 5.80859C41.5712 5.80859 45.4192 6.56558 48.9833 7.92184C49.2357 6.59712 49.8665 5.36701 50.9389 4.5154C51.0966 4.10537 51.2858 3.69534 51.5382 3.34838C47.217 1.61362 42.4858 0.604309 37.5339 0.604309C16.8114 0.604309 0 17.4157 0 38.1382C0 58.8607 16.8114 75.6721 37.5339 75.6721C58.2564 75.6721 75.0679 58.8607 75.0679 38.1382C75.0679 29.496 72.1345 21.5476 67.2141 15.1763L67.1826 15.2394Z" fill="black"/>
<path d="M30.7146 31.8815C31.9132 30.4306 32.3863 28.5066 32.0394 26.6141C31.9132 26.0149 31.724 25.4156 31.4401 24.8794C32.2602 24.3747 33.2379 24.0909 34.2788 24.0909C37.3067 24.0909 39.767 26.5511 39.767 29.579C39.767 32.607 37.3067 35.0672 34.2788 35.0672C32.9856 35.0672 31.8186 34.6256 30.904 33.9001L30.5569 32.7962C30.4623 32.4808 30.5569 32.1654 30.7462 31.913L30.7146 31.8815ZM50.6802 49.9546C50.6802 51.7524 49.1977 53.2348 47.3999 53.2348H35.3197C35.3197 53.2348 29.4845 53.6764 27.4975 48.8506C27.3398 48.4721 27.182 48.0306 27.0874 47.589L21.1892 29.1374C21.1892 29.1374 21.1892 29.0428 21.1577 28.9797C21.063 28.6012 21 28.2227 21 27.8127C21 24.9109 23.6494 22.6084 26.6774 23.1762C28.5383 23.5231 30.0208 25.0371 30.3677 26.898C30.6516 28.412 30.21 29.7998 29.3584 30.8406C28.7906 31.503 28.6645 32.4492 28.9483 33.2693L30.7146 38.7575C30.9985 39.6722 31.9448 40.1137 32.8595 39.8929C33.6796 39.6722 34.6258 39.6406 35.6035 39.8929C37.086 40.2399 38.3476 41.2808 38.9469 42.6686C39.1677 43.1732 39.3253 43.6779 39.3884 44.151C39.6723 45.728 40.9655 46.8951 42.5741 46.8951H47.6837C49.3554 46.8951 50.7432 48.2513 50.7432 49.9546H50.6802ZM53.5819 45.2234C53.3927 45.2865 53.172 45.318 52.9827 45.3811L50.3017 46.0119C49.5447 45.5073 48.63 45.1918 47.6207 45.1918H42.5111C41.7856 45.1918 41.1548 44.6557 41.0286 43.8671C40.9025 43.2048 40.7448 42.6055 40.4609 42.0062C39.6408 40.1453 37.9376 38.7259 35.919 38.2528C35.3197 38.0951 34.7204 38.032 34.1211 38.032C33.5218 38.032 32.9225 38.0951 32.3232 38.2528H32.2286L32.0394 37.6851C32.0394 37.5904 32.0394 37.5274 32.0394 37.4327C32.0394 36.7704 32.6071 36.455 33.1433 36.3288C36.1713 35.5718 41.2179 34.1209 44.2143 33.3955C45.7283 33.017 46.9899 33.8055 47.3368 35.2564C47.6522 36.518 46.8637 37.7482 45.4444 38.1582C44.3089 38.4736 42.6372 39.0098 41.5017 39.2937C41.4386 39.2937 41.4071 39.3883 41.2809 39.4829C41.5017 39.956 41.6279 40.2399 41.9118 40.8076C42.5741 42.2901 43.9304 42.3532 44.6558 42.227L51.9418 40.5238C51.9418 40.5238 51.9733 40.5238 52.0049 40.5238C52.2572 40.4922 52.5096 40.4607 52.8565 40.4607C54.1497 40.4607 55.0959 41.3123 55.2852 42.5739C55.4744 43.804 54.7805 44.9395 53.5189 45.2234H53.5819Z" fill="black"/>
</svg>
