<svg width="67" height="30" viewBox="0 0 67 30" fill="none" xmlns="http://www.w3.org/2000/svg">
<path d="M0.6875 30V26.8585C0.6875 25.0581 1.64834 23.578 3.57001 22.4182C5.49168 21.2585 7.9966 20.6786 11.0848 20.6786C11.5851 20.6786 12.0963 20.6953 12.6184 20.7287C13.1401 20.7616 13.6656 20.8203 14.1948 20.9048C13.7925 21.7167 13.4891 22.5416 13.2846 23.3793C13.0806 24.217 12.9786 25.0753 12.9786 25.954V30H0.6875ZM17.8071 30V26.0642C17.8071 24.7241 18.182 23.4993 18.932 22.3896C19.6819 21.2795 20.7628 20.3118 22.1747 19.4864C23.5866 18.6606 25.2548 18.0414 27.1793 17.6287C29.1034 17.2156 31.2067 17.009 33.4893 17.009C35.8157 17.009 37.9409 17.2156 39.8649 17.6287C41.789 18.0414 43.4569 18.6606 44.8688 19.4864C46.2812 20.3118 47.355 21.2795 48.0901 22.3896C48.8253 23.4993 49.1929 24.7241 49.1929 26.0642V30H17.8071ZM54.0214 30V25.9626C54.0214 25.0318 53.9296 24.149 53.746 23.3142C53.5625 22.4798 53.2714 21.6778 52.8729 20.9083C53.4326 20.8215 53.9655 20.7616 54.4715 20.7287C54.9774 20.6953 55.4737 20.6786 55.9602 20.6786C59.0526 20.6786 61.5511 21.249 63.4557 22.3896C65.3602 23.5303 66.3125 25.0199 66.3125 26.8585V30H54.0214ZM21.4471 26.4034H45.5679V25.8882C45.507 24.3382 44.3536 23.0702 42.1076 22.0841C39.8616 21.0984 36.9924 20.6056 33.5 20.6056C30.02 20.6056 27.1539 21.0984 24.9017 22.0841C22.6495 23.0702 21.498 24.348 21.4471 25.9175V26.4034ZM11.0391 18.2477C9.79844 18.2477 8.73703 17.8024 7.85489 16.9117C6.97228 16.0215 6.53098 14.95 6.53098 13.6973C6.53098 12.4421 6.9749 11.3744 7.86274 10.4942C8.7501 9.61453 9.81817 9.17468 11.0669 9.17468C12.3181 9.17468 13.3869 9.61453 14.2733 10.4942C15.1597 11.3744 15.6029 12.4516 15.6029 13.7259C15.6029 14.9519 15.1647 16.0122 14.2883 16.9067C13.4119 17.8007 12.3288 18.2477 11.0391 18.2477ZM55.9395 18.2477C54.7121 18.2477 53.6528 17.7995 52.7617 16.9031C51.87 16.0072 51.4242 14.9412 51.4242 13.7051C51.4242 12.4447 51.871 11.3744 52.7645 10.4942C53.6576 9.61453 54.7247 9.17468 55.9659 9.17468C57.2313 9.17468 58.3027 9.61453 59.1801 10.4942C60.0574 11.3744 60.4961 12.449 60.4961 13.718C60.4961 14.9608 60.0586 16.0265 59.1836 16.9153C58.3086 17.8036 57.2272 18.2477 55.9395 18.2477ZM33.51 14.8622C31.4547 14.8622 29.7047 14.1397 28.26 12.6947C26.8153 11.2501 26.0929 9.49574 26.0929 7.43148C26.0929 5.32571 26.8129 3.56081 28.2529 2.13677C29.6933 0.712257 31.4423 0 33.5 0C35.5986 0 37.3578 0.711305 38.7778 2.13391C40.1973 3.55604 40.9071 5.31856 40.9071 7.42146C40.9071 9.48286 40.1983 11.2385 38.7807 12.6883C37.3626 14.1376 35.6057 14.8622 33.51 14.8622ZM33.5307 11.2664C34.604 11.2664 35.5044 10.8943 36.232 10.15C36.9591 9.40629 37.3227 8.48985 37.3227 7.40071C37.3227 6.32397 36.9577 5.42065 36.2277 4.69074C35.4982 3.96131 34.5945 3.59659 33.5164 3.59659C32.4493 3.59659 31.5427 3.9625 30.7965 4.69432C30.0504 5.42661 29.6773 6.33328 29.6773 7.41431C29.6773 8.48484 30.048 9.39437 30.7894 10.1429C31.5312 10.8919 32.445 11.2664 33.5307 11.2664Z" fill="#CF2D1E"/>
</svg>
