<svg width="76" height="76" viewBox="0 0 76 76" fill="none" xmlns="http://www.w3.org/2000/svg">
<path d="M67.1826 15.2394C66.8041 15.9333 66.2679 16.5326 65.574 16.9741C65.1324 17.8257 64.4701 18.5827 63.6184 19.0874C67.5295 24.4178 69.8635 31.0099 69.8635 38.1382C69.8635 55.9905 55.3862 70.4678 37.5339 70.4678C19.6816 70.4678 5.20426 55.9905 5.20426 38.1382C5.20426 20.286 19.6816 5.80859 37.5339 5.80859C41.5712 5.80859 45.4192 6.56558 48.9833 7.92184C49.2357 6.59712 49.8665 5.36701 50.9389 4.5154C51.0966 4.10537 51.2858 3.69534 51.5382 3.34838C47.217 1.61362 42.4858 0.604309 37.5339 0.604309C16.8114 0.604309 0 17.4157 0 38.1382C0 58.8607 16.8114 75.6721 37.5339 75.6721C58.2564 75.6721 75.0679 58.8607 75.0679 38.1382C75.0679 29.496 72.1345 21.5476 67.2141 15.1763L67.1826 15.2394Z" fill="black"/>
<path d="M38.2296 28.9835C38.2296 23.8738 34.0662 19.6789 28.988 19.6158C23.8784 19.5527 19.4941 23.653 19.4941 28.8889C19.4941 34.1562 23.626 38.3196 28.8619 38.3512C34.0346 38.3512 38.2296 34.1878 38.2296 28.9835ZM38.8288 44.2494C38.1034 43.1454 37.3149 42.073 36.6525 40.906C36.3686 40.4014 36.0217 40.2436 35.5171 40.1806C34.3185 40.0229 33.1199 39.8336 31.9529 39.6444C30.9121 39.4867 30.1235 39.8967 29.5558 40.7798C28.4203 42.5461 27.2848 44.344 26.1494 46.1103C25.2347 47.5612 24.2884 49.0121 23.3737 50.463C22.5537 51.7877 23.1845 53.4594 24.6669 53.9009C25.6447 54.1848 26.6225 53.8063 27.2217 52.8916C27.9157 51.8508 28.5781 50.7784 29.2404 49.706C30.3128 48.0028 31.4168 46.3311 32.4892 44.6279C32.6153 44.4071 32.7414 44.344 33.0253 44.3755C34.9493 44.6909 36.9049 44.9748 38.8604 45.2902C39.0812 45.3218 39.3335 45.3533 39.6489 45.4164C39.3651 44.9748 39.1127 44.5963 38.8604 44.2494H38.8288ZM43.7178 43.587C44.7586 41.7892 45.6733 39.8967 46.1464 37.8465C46.4934 36.2695 46.7773 34.6609 46.6826 33.0523C46.588 31.6014 45.9572 30.4028 44.664 29.6458C43.4654 28.9519 42.2984 29.1412 41.3837 30.182C40.7213 30.939 40.4375 31.8537 40.2482 32.8315C39.8697 34.8186 39.4597 36.8372 38.7974 38.7612C38.7974 38.8558 38.7658 38.982 38.7974 39.0451C40.059 40.9376 41.3206 42.83 42.5822 44.6909C42.5822 44.6909 42.6138 44.6909 42.7084 44.7856C43.0554 44.3755 43.4339 43.997 43.7178 43.5555V43.587ZM43.56 19.9312C41.3206 19.9312 39.4913 21.7606 39.4913 23.9684C39.4913 26.2709 41.3206 28.1003 43.5916 28.1003C45.831 28.1003 47.6604 26.2394 47.6604 24C47.6604 21.729 45.831 19.9312 43.5916 19.9312H43.56Z" fill="black"/>
<path d="M47.8497 56.7737C48.3228 56.4268 48.7959 56.1114 49.269 55.7644C49.2059 55.6382 49.1429 55.5436 49.0483 55.4174C45.5788 50.1816 42.0777 44.9143 38.6082 39.6784C38.3874 39.3315 38.1035 39.0792 37.6935 39.0792C37.0311 39.0792 36.621 39.8046 36.9364 40.4039C37.0941 40.6878 37.2834 40.9401 37.4727 41.224C40.8476 46.3021 44.2224 51.3802 47.5973 56.4583C47.6604 56.5529 47.692 56.6791 47.7551 56.7737H47.9128H47.8497Z" fill="black"/>
<path d="M55.545 27.4369C55.2927 26.9323 55.0403 26.4276 54.7565 25.923C51.8232 27.2792 48.9213 28.6355 46.0195 29.9918C46.3349 30.528 46.6504 31.0326 46.9658 31.5688C47.6913 31.2219 48.4482 30.8749 49.2052 30.528C51.3185 29.5502 53.4318 28.5724 55.545 27.5947V27.4369Z" fill="black"/>
<path d="M28.8306 38.3511C34.0033 38.3511 38.1983 34.1877 38.1983 28.9834C38.1983 23.8738 34.0348 19.6788 28.9567 19.6157C23.847 19.5526 19.4629 23.653 19.4629 28.8888C19.4629 34.1562 23.5948 38.3196 28.8306 38.3511Z" fill="black"/>
<path d="M39.5867 45.4152C39.3028 44.9736 39.0505 44.5951 38.7982 44.2482C38.0727 43.1442 37.2842 42.0718 36.6218 40.9048C36.338 40.4001 35.991 40.2424 35.4863 40.1794C34.2878 40.0217 33.0892 39.8324 31.9222 39.6432C30.8813 39.4855 30.0928 39.8955 29.5251 40.7786C28.3896 42.5449 27.2541 44.3428 26.1186 46.1091C25.2039 47.56 24.2577 49.0109 23.343 50.4618C22.5229 51.7865 23.1537 53.4582 24.6362 53.8997C25.6139 54.1836 26.5917 53.8051 27.191 52.8904C27.8849 51.8496 28.5473 50.7772 29.2097 49.7048C30.2821 48.0016 31.386 46.3299 32.4584 44.6267C32.5846 44.4059 32.7107 44.3428 32.9945 44.3743C34.9185 44.6897 36.8741 44.9736 38.8297 45.289C39.0505 45.3206 39.3028 45.3521 39.6182 45.4152H39.5867Z" fill="black"/>
<path d="M42.7396 44.7827C43.0866 44.3726 43.465 43.9941 43.7489 43.5526C44.7897 41.7547 45.7045 39.8623 46.1776 37.8121C46.5246 36.235 46.8084 34.6264 46.7137 33.0178C46.6191 31.5669 45.9884 30.3684 44.6952 29.6114C43.4966 28.9175 42.3296 29.1067 41.4149 30.1476C40.7525 30.9046 40.4687 31.8193 40.2794 32.7971C39.9009 34.7841 39.4908 36.8028 38.8285 38.7268C38.8285 38.8214 38.7969 38.9476 38.8285 39.0106C40.0901 40.9031 41.3518 42.7956 42.6134 44.6565C42.6134 44.6565 42.645 44.6565 42.7396 44.7511V44.7827Z" fill="black"/>
<path d="M47.6611 23.9677C47.6611 21.6967 45.8317 19.8989 43.5923 19.8989C41.3528 19.8989 39.5234 21.7282 39.5234 23.9361C39.5234 26.2386 41.3529 28.068 43.6238 28.068C45.8633 28.068 47.6926 26.2071 47.6926 23.9677H47.6611Z" fill="black"/>
</svg>
