<svg width="33" height="30" viewBox="0 0 33 30" fill="none" xmlns="http://www.w3.org/2000/svg">
<path d="M8.48361 29.991C7.56424 29.9617 6.68974 29.7211 5.86011 29.2692C5.03076 28.8177 4.24643 28.1549 3.50712 27.2808C2.4048 25.9732 1.54478 24.3911 0.927039 22.5347C0.309013 20.6783 0 18.7619 0 16.7857C0 14.4619 0.430882 12.2792 1.29264 10.2375C2.15441 8.19579 3.33068 6.41893 4.82147 4.9069C6.31226 3.39487 8.06141 2.19905 10.0689 1.31943C12.0761 0.439811 14.2198 0 16.5 0C18.7802 0 20.9239 0.441425 22.9311 1.32427C24.9386 2.20683 26.685 3.41029 28.1703 4.93465C29.6556 6.4593 30.8318 8.24864 31.6991 10.3027C32.5664 12.3567 33 14.5581 33 16.9068C33 18.9553 32.6746 20.9112 32.0239 22.7747C31.3734 24.6382 30.4589 26.2189 29.2801 27.5169C28.5246 28.3404 27.7407 28.9586 26.9284 29.3714C26.1159 29.7845 25.2739 29.991 24.4026 29.991C23.9372 29.991 23.4773 29.9335 23.0231 29.8184C22.569 29.703 22.1148 29.5302 21.6606 29.3001L19.229 28.067C18.8029 27.8447 18.3583 27.6812 17.8951 27.5763C17.432 27.4712 16.9614 27.4187 16.4835 27.4187C15.9943 27.4187 15.5227 27.4712 15.0688 27.5763C14.6149 27.6812 14.1768 27.8447 13.7545 28.067L11.3394 29.3001C10.8563 29.5596 10.3831 29.7471 9.91997 29.8625C9.45682 29.9775 8.97803 30.0204 8.48361 29.991ZM8.57175 27.7776C8.86354 27.7776 9.16068 27.7405 9.46318 27.6662C9.7654 27.5916 10.0624 27.4809 10.3542 27.3341L12.7858 26.101C13.3624 25.8095 13.9578 25.5903 14.5721 25.4435C15.1864 25.2967 15.8145 25.2233 16.4566 25.2233C17.0986 25.2233 17.731 25.2938 18.3536 25.4347C18.9766 25.5753 19.5823 25.7974 20.1708 26.101L22.6458 27.3341C22.9376 27.4809 23.2274 27.5916 23.5151 27.6662C23.8031 27.7405 24.093 27.7776 24.3848 27.7776C24.9898 27.7776 25.5715 27.6248 26.1299 27.3192C26.6886 27.0135 27.2392 26.5514 27.7817 25.9328C28.7436 24.8171 29.4901 23.4623 30.0213 21.8684C30.5522 20.2747 30.8177 18.6065 30.8177 16.8637C30.8177 12.7624 29.4315 9.29532 26.6592 6.46239C23.8872 3.62975 20.5008 2.21344 16.5 2.21344C12.4992 2.21344 9.11278 3.64297 6.34078 6.50202C3.56849 9.36138 2.18234 12.8454 2.18234 16.954C2.18234 18.715 2.45575 20.3911 3.00257 21.9824C3.54967 23.574 4.31084 24.919 5.28608 26.0173C5.82132 26.6286 6.35583 27.0749 6.88962 27.3561C7.42312 27.6371 7.98383 27.7776 8.57175 27.7776ZM16.5 19.6034C17.2891 19.6034 17.9576 19.3254 18.5056 18.7693C19.0539 18.2135 19.328 17.5354 19.328 16.7351C19.328 16.4891 19.2979 16.2457 19.2377 16.0049C19.1775 15.7645 19.0869 15.5385 18.9659 15.3271L21.9489 11.4332C22.329 11.8383 22.6652 12.2824 22.9576 12.7654C23.2499 13.2483 23.4815 13.7717 23.6523 14.3354H25.9211C25.3771 12.1122 24.2333 10.304 22.4895 8.91056C20.7454 7.51714 18.7489 6.82043 16.5 6.82043C14.2511 6.82043 12.2473 7.51875 10.4888 8.9154C8.73053 10.3118 7.58826 12.1184 7.062 14.3354H9.31425C9.84051 12.7388 10.7628 11.4561 12.081 10.4872C13.3993 9.5183 14.8723 9.03387 16.5 9.03387C17.1696 9.03387 17.82 9.12283 18.4513 9.30075C19.0824 9.47896 19.6781 9.73483 20.2386 10.0684L17.2473 13.98C17.1321 13.9453 17.0093 13.9177 16.8791 13.8972C16.7488 13.8769 16.6224 13.8668 16.5 13.8668C15.7109 13.8668 15.0424 14.1448 14.4944 14.7009C13.9461 15.2567 13.672 15.9347 13.672 16.7351C13.672 17.5354 13.9461 18.2135 14.4944 18.7693C15.0424 19.3254 15.7109 19.6034 16.5 19.6034Z" fill="#C4362F"/>
</svg>
