<svg width="35" height="30" viewBox="0 0 35 30" fill="none" xmlns="http://www.w3.org/2000/svg">
<path d="M4.0259 25.905V28.7435C4.0259 29.0995 3.90776 29.3978 3.67149 29.6385C3.43554 29.8795 3.14306 30 2.79404 30H2.06511C1.7161 30 1.42361 29.8795 1.18766 29.6385C0.951389 29.3978 0.833252 29.0995 0.833252 28.7435V13.3025L4.85776 1.2565C4.99044 0.869167 5.22051 0.563001 5.54796 0.338001C5.87573 0.112667 6.24322 0 6.65041 0H28.4249C28.8223 0 29.1751 0.112333 29.4833 0.337C29.7911 0.561999 30.0107 0.8685 30.1421 1.2565L34.1666 13.3025V28.7435C34.1666 29.0995 34.0484 29.3978 33.8122 29.6385C33.5762 29.8795 33.2837 30 32.9347 30H32.1857C31.8279 30 31.5364 29.8795 31.3112 29.6385C31.0864 29.3978 30.9739 29.0995 30.9739 28.7435V25.905H4.0259ZM4.26953 10.79H30.7303L27.945 2.513H7.05482L4.26953 10.79ZM8.26364 20.841C8.94861 20.841 9.52377 20.5993 9.98913 20.116C10.4545 19.6327 10.6872 19.0485 10.6872 18.3635C10.6872 17.6598 10.4502 17.0657 9.97639 16.581C9.50253 16.0963 8.93129 15.854 8.26266 15.854C7.57541 15.854 6.99289 16.097 6.51511 16.583C6.03701 17.0693 5.79796 17.6632 5.79796 18.3645C5.79796 19.0658 6.03766 19.654 6.51708 20.129C6.99649 20.6037 7.57868 20.841 8.26364 20.841ZM26.7661 20.841C27.4507 20.841 28.0313 20.5993 28.5078 20.116C28.9839 19.6327 29.222 19.0485 29.222 18.3635C29.222 17.6598 28.9831 17.0657 28.5053 16.581C28.0275 16.0963 27.4475 15.854 26.7651 15.854C26.0828 15.854 25.5068 16.097 25.0372 16.583C24.5676 17.0693 24.3328 17.6632 24.3328 18.3645C24.3328 19.0658 24.5716 19.654 25.0494 20.129C25.5275 20.6037 26.0998 20.841 26.7661 20.841ZM3.29698 23.3925H31.7029V13.3025H3.29698V23.3925Z" fill="#C4362F"/>
</svg>
