<svg width="76" height="76" viewBox="0 0 76 76" fill="none" xmlns="http://www.w3.org/2000/svg">
<path d="M67.1826 15.2403C66.8041 15.9342 66.2679 16.5335 65.574 16.9751C65.1324 17.8267 64.4701 18.5836 63.6184 19.0883C67.5295 24.4188 69.8635 31.0108 69.8635 38.1391C69.8635 55.9914 55.3862 70.4688 37.5339 70.4688C19.6816 70.4688 5.20426 55.9914 5.20426 38.1391C5.20426 20.2869 19.6816 5.80951 37.5339 5.80951C41.5712 5.80951 45.4192 6.56649 48.9833 7.92276C49.2357 6.59803 49.8665 5.36793 50.9389 4.51632C51.0966 4.10629 51.2858 3.69625 51.5382 3.3493C47.217 1.61454 42.4858 0.605225 37.5339 0.605225C16.8114 0.605225 0 17.4166 0 38.1391C0 58.8616 16.8114 75.673 37.5339 75.673C58.2564 75.673 75.0679 58.8616 75.0679 38.1391C75.0679 29.4969 72.1345 21.5485 67.2141 15.1772L67.1826 15.2403Z" fill="black"/>
<mask id="mask0_2147_1162" style="mask-type:luminance" maskUnits="userSpaceOnUse" x="6" y="9" width="64" height="58">
<path d="M69.6184 9.83521H6V66.5146H69.6184V9.83521Z" fill="white"/>
</mask>
<g mask="url(#mask0_2147_1162)">
<path d="M45.8359 50.0085C45.8359 51.2701 46.8453 52.2795 48.1385 52.2795C49.4001 52.2795 50.4094 51.2701 50.4094 50.0085C50.4094 48.7469 49.4001 47.7375 48.1385 47.7375C46.8768 47.7375 45.8675 48.7469 45.8675 50.0085H45.8359ZM48.6116 47.8953C48.6116 47.8953 48.6115 48.1791 48.58 48.3053C48.5485 48.6207 48.4854 48.9361 48.3277 49.1884C48.2015 49.3777 48.0123 49.3777 47.8861 49.1884C47.6338 48.7784 47.6023 48.3368 47.5708 47.8953C47.7285 47.8637 47.9176 47.8322 48.0753 47.8322C48.233 47.8322 48.4223 47.8322 48.58 47.8953H48.6116ZM48.1069 49.4408C48.4223 49.4408 48.6746 49.7246 48.6746 50.0085C48.6746 50.3239 48.3908 50.5447 48.1069 50.5447C47.7915 50.5447 47.5392 50.2924 47.5708 49.977C47.5708 49.6931 47.8231 49.4092 48.1385 49.4092L48.1069 49.4408ZM49.9678 48.873C49.6524 49.1569 49.337 49.4408 48.927 49.5669C48.8324 49.5985 48.6746 49.5669 48.58 49.5669C48.4538 49.5039 48.4854 49.3461 48.5485 49.22C48.6747 48.8099 48.927 48.4945 49.2424 48.1791C49.5263 48.3684 49.7786 48.6207 49.9678 48.9046V48.873ZM50.2202 50.5132C50.2202 50.5132 49.9363 50.5132 49.8101 50.4816C49.4947 50.4501 49.2109 50.387 48.9586 50.2293C48.7378 50.0716 48.7062 49.9139 48.9586 49.7562C49.3371 49.5354 49.7786 49.4723 50.2202 49.4723C50.2517 49.63 50.2832 49.8193 50.2832 49.977C50.2832 50.1347 50.2833 50.3239 50.2202 50.4816V50.5132ZM48.6431 51.0494C48.6431 51.0494 48.5485 50.797 48.5169 50.6709C48.5169 50.5132 48.6115 50.4185 48.7692 50.4185C48.8323 50.4185 48.8955 50.4185 48.9586 50.4501C49.3371 50.5762 49.6524 50.8286 49.9678 51.1124C49.7786 51.4279 49.5263 51.6802 49.2109 51.8694C49.0216 51.5856 48.8324 51.3332 48.6431 51.0494ZM47.6022 52.1218C47.6022 52.1218 47.6023 51.8379 47.6338 51.7117C47.6653 51.3963 47.7284 51.1124 47.8861 50.8601C48.0438 50.6393 48.2016 50.6078 48.3593 50.8601C48.5801 51.2386 48.6431 51.6802 48.6431 52.1218C48.4854 52.1533 48.2962 52.1848 48.1385 52.1848C47.9808 52.1848 47.7915 52.1848 47.6338 52.1218H47.6022ZM46.2776 51.144C46.593 50.8601 46.9083 50.6078 47.3184 50.4501C47.4445 50.4185 47.6023 50.3555 47.6654 50.4816C47.7285 50.5762 47.7285 50.7024 47.6654 50.8286C47.5392 51.2386 47.2868 51.554 47.0029 51.8694C46.7191 51.6802 46.4668 51.4279 46.2776 51.144ZM46.0883 49.5038C46.0883 49.5038 46.309 49.5038 46.4037 49.5354C46.6875 49.5985 46.9714 49.6616 47.2238 49.7562C47.3499 49.7877 47.4446 49.8823 47.4446 50.04C47.4446 50.1978 47.3184 50.2608 47.2238 50.2924C46.8453 50.4816 46.4668 50.5132 45.9937 50.5447C45.9622 50.387 45.9306 50.1978 45.9306 50.0085C45.9306 49.8193 45.9306 49.6616 45.9937 49.5038C45.9937 49.5038 46.0252 49.5038 46.0567 49.5038H46.0883ZM46.2776 48.9046C46.4668 48.6207 46.7191 48.3684 47.0029 48.1791C47.066 48.2422 47.1291 48.3053 47.1922 48.3684C47.3814 48.6522 47.5707 48.9046 47.6969 49.22C47.823 49.5038 47.6654 49.6931 47.3815 49.5985C46.9715 49.4723 46.6244 49.22 46.309 48.9046H46.2776Z" fill="black"/>
<path d="M52.617 51.3889V51.2943H52.5539C52.207 51.2943 52.0492 51.1681 52.0177 50.9158C52.0177 50.6003 52.0177 50.2849 52.0177 50.0011C52.0177 49.5595 52.0492 49.1495 52.0177 48.7394C51.9231 48.1086 51.6708 47.4778 51.2607 47.0047C50.4407 45.9953 49.2421 45.5538 47.5389 45.7115C47.0027 45.7746 46.2457 45.8692 45.7095 46.3423C45.2679 46.7208 44.8895 47.257 44.574 47.9824C44.3848 48.4556 44.1955 48.9602 44.0694 49.4333C43.9748 49.6857 43.9117 49.9695 43.8171 50.2219C43.8171 50.2849 43.754 50.4111 43.6279 50.5057C43.1547 50.8842 42.2715 50.2219 42.2715 50.1903C41.9561 49.9064 41.7669 49.5279 41.6407 49.2125C41.5777 49.0233 41.5145 48.8025 41.483 48.6133C41.3253 47.6355 41.42 46.7208 41.5461 45.8061L41.6092 45.2699C41.7984 43.6613 42.8393 43.1566 43.7539 42.9359C46.6873 42.1473 49.7153 41.7688 52.3017 41.4534C53.1533 41.3588 53.8787 41.2011 54.5726 40.6964C55.8343 39.7817 57.2221 39.0248 58.4206 38.3624C60.0292 37.4477 62.2055 36.4069 64.6657 36.3122C67.3782 36.1861 69.9962 36.123 72.6141 36.1861C75.3267 36.2491 78.0392 36.4384 80.6886 36.5961C81.761 36.6592 82.865 36.7223 83.9374 36.7853C84.0635 36.7853 84.1897 36.8169 84.3158 36.8484L84.6628 36.9115L84.852 37.4793L84.095 38.1732L84.7259 39.2771C85.2306 40.1287 85.7037 41.0119 86.2083 41.8635C86.6499 42.5889 86.6183 43.3459 86.5552 43.8506C86.5237 44.1975 86.4606 44.576 86.366 44.9545C86.3345 45.1122 86.366 45.1437 86.429 45.2699C87.1545 46.1531 87.4384 47.0047 87.3753 47.9509C87.2807 49.0548 86.9337 49.8434 85.5775 50.1272C84.8205 50.2849 84.0004 50.4111 83.2435 50.5373C82.8965 50.6003 82.5811 50.6319 82.2341 50.695L81.8556 50.7581L81.7295 50.1272C81.4771 48.8025 81.1618 47.8563 80.6886 47.0677C80.1209 46.1215 79.4585 45.6484 78.6069 45.6169C77.9445 45.5853 77.1875 45.6169 76.3674 45.7115C75.4212 45.8376 74.7589 46.3108 74.3488 47.1308C74.2858 47.257 74.2227 47.3832 74.1596 47.5093C74.0334 47.6986 73.9388 47.8878 73.8758 48.1086C73.655 48.7394 73.4657 49.3702 73.2449 50.0326L72.898 51.1365L52.617 51.452V51.3889ZM52.8062 50.5373C52.8062 50.5373 52.9955 50.5373 53.0586 50.6003L72.3302 50.3165L72.5194 49.7487C72.7402 49.0864 72.9295 48.4556 73.1503 47.8247C73.2449 47.5724 73.3711 47.3516 73.4973 47.1308C73.5604 47.0047 73.6234 46.91 73.6865 46.7839C74.2227 45.7115 75.1058 45.0807 76.3044 44.9229C77.1875 44.8283 77.9445 44.7968 78.67 44.8283C79.7739 44.8914 80.6571 45.4907 81.351 46.6577C81.8872 47.5409 82.2341 48.5186 82.4864 49.8749C82.7072 49.8434 82.9281 49.8118 83.1488 49.7803C83.9374 49.6541 84.6944 49.5595 85.4198 49.3702C86.2714 49.181 86.5237 48.834 86.6183 47.8563C86.6814 47.1308 86.4606 46.4685 85.8613 45.7115C85.609 45.4276 85.5459 45.1122 85.6405 44.7337C85.7351 44.4183 85.7667 44.0398 85.7983 43.7559C85.8614 43.1251 85.7982 42.652 85.5459 42.242C85.0412 41.3903 84.5366 40.5072 84.0635 39.624L83.1173 38.0154L83.6535 37.5108C82.6442 37.4477 81.6348 37.3846 80.6255 37.3215C77.976 37.1638 75.2635 37.0061 72.551 36.9115C69.9646 36.8484 67.3467 36.9115 64.6657 37.0377C62.3632 37.1323 60.2815 38.1416 58.7675 38.9932C57.569 39.6556 56.2127 40.4126 54.9826 41.2957C54.0994 41.9265 53.1847 42.0842 52.3331 42.1789C49.7783 42.4627 46.7819 42.8412 43.9117 43.6298C42.8709 43.9136 42.4293 44.3868 42.3347 45.333L42.2715 45.8692C42.1769 46.7523 42.0508 47.6039 42.2085 48.4556C42.2085 48.6133 42.2716 48.771 42.3347 48.8971C42.4293 49.1179 42.5555 49.3702 42.7447 49.5595C42.8078 49.6226 42.997 49.7172 43.1232 49.7487C43.1863 49.5279 43.2493 49.3387 43.3124 49.1179C43.4701 48.6133 43.6278 48.0771 43.8486 47.6039C44.1955 46.7839 44.6371 46.1531 45.1733 45.6799C45.8672 45.0807 46.7819 44.9229 47.4127 44.8599C49.3367 44.6706 50.8192 45.2068 51.797 46.4369C52.2701 47.0362 52.5854 47.7616 52.7116 48.5502C52.7747 49.0233 52.7431 49.4964 52.7116 49.9695C52.7116 50.1272 52.7116 50.3165 52.7116 50.4742L52.8062 50.5373ZM55.8342 42.8097L55.6765 42.242L55.8027 42.0527C58.0736 39.4348 60.9754 37.9208 64.6657 37.3846L65.2019 37.3215L64.2872 42.3681L55.8342 42.8412V42.8097ZM64.2557 38.2362C61.2593 38.7409 58.8622 39.971 56.9066 41.9896L63.6249 41.6111L64.2557 38.2362ZM65.4227 42.2735L65.6435 37.3531H65.9905C66.1482 37.3215 66.3059 37.29 66.4636 37.29C66.8105 37.29 67.1259 37.2269 67.4413 37.2269C69.3969 37.1954 71.3209 37.1638 73.2765 37.1323C73.5919 37.1323 73.9073 37.4162 73.9704 37.6685C74.1596 38.2993 74.3173 38.9617 74.475 39.5925L74.9797 41.6742L65.3912 42.242L65.4227 42.2735ZM66.4005 38.0785L66.2428 41.4534L74.065 41.0119L73.7811 39.8448C73.6234 39.214 73.4657 38.5832 73.2765 37.9524C71.3525 37.9524 69.4285 37.9839 67.4729 38.047C67.1575 38.047 66.8736 38.0785 66.5266 38.1101C66.4951 38.1101 66.4321 38.1101 66.4005 38.1101V38.0785ZM75.5474 41.7058L74.0965 37.2585L74.6643 37.1954C74.6643 37.1954 74.7904 37.1954 74.8219 37.1954C75.2004 37.1954 75.579 37.1954 75.9575 37.2269C76.9037 37.2585 77.8499 37.29 78.8276 37.3531H78.9223C79.6793 37.4162 80.5308 37.4792 81.1932 38.1101C81.761 38.6463 82.3288 39.2456 82.865 39.7817L83.3696 40.3179C83.3696 40.3179 83.4958 40.5387 83.5273 40.6018L83.7481 41.1065L83.2119 41.2011L75.5159 41.6742L75.5474 41.7058ZM75.1374 37.9839L76.0836 40.9172L82.4549 40.5387L82.2972 40.381C81.761 39.8448 81.2248 39.2456 80.6571 38.7409C80.1839 38.2993 79.5531 38.2678 78.8592 38.2047H78.7646C77.8183 38.1416 76.8721 38.0785 75.9259 38.047C75.642 38.047 75.3897 38.047 75.1058 38.047L75.1374 37.9839Z" fill="black"/>
<path d="M48.2011 54.354C48.2011 54.354 48.138 54.354 48.1064 54.354C46.8763 54.354 45.7408 53.8178 44.9208 52.9347C44.1322 52.0831 43.6907 51.0107 43.7223 49.8752C43.7854 47.3834 45.7409 45.4594 48.2326 45.491C49.4312 45.491 50.5351 45.9956 51.3552 46.8472C52.1752 47.6989 52.6169 48.8343 52.5853 50.0329C52.5853 51.2315 52.0807 52.3354 51.1975 53.1555C50.3774 53.944 49.305 54.3856 48.2011 54.3856V54.354ZM44.4792 49.8752C44.4792 50.8214 44.7946 51.7046 45.457 52.3985C46.1509 53.1239 47.0971 53.5655 48.1064 53.5655C49.0527 53.5655 49.9359 53.2186 50.6298 52.5562C51.3552 51.8623 51.7337 50.9476 51.7652 49.9698C51.7652 48.992 51.4183 48.0458 50.7559 47.3519C50.0935 46.658 49.1789 46.248 48.1696 46.248C46.1194 46.1849 44.4792 47.7935 44.4477 49.8752H44.4792ZM48.138 52.8085C48.138 52.8085 48.1064 52.8085 48.0749 52.8085C46.4978 52.8085 45.2362 51.4522 45.2362 49.8752C45.2362 49.0867 45.5516 48.3612 46.1193 47.825C46.6871 47.2888 47.4126 47.005 48.1696 47.005C49.7466 47.005 51.0397 48.3297 51.0397 49.9067C51.0397 50.6637 50.7243 51.4207 50.1566 51.9569C49.6204 52.4931 48.8635 52.8085 48.138 52.8085ZM46.0247 49.9067C46.0247 51.0738 46.9394 52.02 48.1064 52.0515C48.6742 52.0515 49.2104 51.8307 49.6519 51.4207C50.062 51.0107 50.2828 50.4745 50.2828 49.9067C50.2828 48.7397 49.3366 47.7935 48.1696 47.7935C47.6019 47.7935 47.0656 48.0143 46.6556 48.3928C46.2455 48.8028 46.0247 49.339 46.0247 49.9067Z" fill="black"/>
<path d="M29.0249 47.7387C27.7632 47.7387 26.7539 48.748 26.7539 50.0097C26.7539 51.2713 27.7632 52.2806 29.0249 52.2806C30.2865 52.2806 31.2958 51.2713 31.3273 50.0097C31.3273 48.748 30.318 47.7387 29.0563 47.7387H29.0249ZM29.0249 47.8333C29.2141 47.8333 29.3718 47.8333 29.5295 47.8964C29.5295 48.338 29.4664 48.7796 29.2141 49.1896C29.0879 49.3788 28.9302 49.3788 28.7725 49.1896C28.5832 48.9373 28.5517 48.6219 28.5202 48.3064C28.5202 48.1803 28.5202 48.0541 28.4886 47.8964C28.6463 47.8649 28.8356 47.8333 28.9933 47.8333H29.0249ZM29.5926 50.0097C29.5926 50.2935 29.3402 50.5774 29.0563 50.5774C28.7725 50.5774 28.4886 50.3251 28.4886 50.0412C28.4886 49.7258 28.7409 49.4735 29.0563 49.4735C29.3402 49.4735 29.6242 49.7258 29.6242 50.0412L29.5926 50.0097ZM27.9209 48.1487C28.2048 48.4642 28.4571 48.7796 28.6148 49.1896C28.6464 49.3158 28.7094 49.4735 28.5832 49.5366C28.4886 49.5996 28.3625 49.5996 28.2363 49.5366C27.8263 49.4104 27.5108 49.1581 27.1954 48.8426C27.3847 48.5588 27.637 48.3064 27.9209 48.1172V48.1487ZM26.8801 50.0097C26.8801 49.8204 26.8801 49.6627 26.9431 49.505C27.4163 49.505 27.8263 49.5681 28.2048 49.7889C28.4256 49.915 28.4256 50.1043 28.2048 50.262C27.9524 50.4197 27.6371 50.4828 27.3532 50.5143C27.227 50.5143 27.1009 50.5143 26.9431 50.5459C26.9116 50.3882 26.8801 50.1989 26.8801 50.0412V50.0097ZM27.9525 51.8706C27.6371 51.6813 27.3847 51.429 27.1954 51.1136C27.5108 50.8297 27.8263 50.5774 28.2048 50.4512C28.2679 50.4512 28.3309 50.4197 28.394 50.4197C28.5517 50.4197 28.6464 50.5143 28.6464 50.672C28.6464 50.7982 28.5833 50.9559 28.5202 51.0505C28.331 51.3344 28.1417 51.5867 27.9525 51.8706ZM29.0563 52.186C28.8671 52.186 28.7095 52.186 28.5518 52.1229C28.5518 51.6498 28.6148 51.2398 28.8356 50.8613C28.9618 50.6405 29.151 50.6405 29.3087 50.8613C29.4664 51.1136 29.5295 51.429 29.561 51.7129C29.561 51.839 29.561 51.9652 29.5926 52.1229C29.4349 52.1545 29.2456 52.186 29.0879 52.186H29.0563ZM30.1919 51.8706C29.908 51.5552 29.6557 51.2398 29.5295 50.8297C29.498 50.7351 29.5295 50.5774 29.5295 50.4828C29.5926 50.3566 29.7503 50.3882 29.8764 50.4512C30.2865 50.5774 30.6019 50.8297 30.9174 51.1451C30.7281 51.429 30.4757 51.6813 30.1919 51.8706ZM31.1696 49.505C31.2012 49.6627 31.2327 49.852 31.2327 50.0097C31.2327 50.1674 31.2327 50.3882 31.1696 50.5459C30.7281 50.5459 30.318 50.4828 29.9395 50.2935C29.8449 50.2305 29.7188 50.1674 29.7188 50.0412C29.7188 49.8835 29.8449 49.8204 29.9395 49.7573C30.2234 49.6627 30.4757 49.5996 30.7596 49.5366C30.8542 49.5366 30.9804 49.5365 31.075 49.505H31.1381H31.1696ZM29.8449 49.5996C29.561 49.6943 29.4034 49.505 29.5295 49.2211C29.6557 48.9373 29.845 48.6534 30.0342 48.3695C30.0657 48.3064 30.1288 48.2434 30.2234 48.1803C30.5073 48.3695 30.7596 48.6219 30.9488 48.9057C30.6019 49.2211 30.2865 49.4735 29.8764 49.5996H29.8449Z" fill="black"/>
<path d="M24.515 51.3905L4.23396 51.0751L3.88706 49.9712C3.66627 49.3088 3.47698 48.678 3.2562 48.0472C3.19311 47.8579 3.06696 47.6687 2.97234 47.4479C2.90926 47.3218 2.84618 47.1956 2.7831 47.0694C2.37306 46.2494 1.67911 45.7447 0.764421 45.6501C-0.0556469 45.5554 -0.812607 45.5239 -1.47497 45.5554C-2.29504 45.587 -2.95741 46.0601 -3.55669 47.0063C-4.06135 47.8264 -4.37672 48.7726 -4.59751 50.0658L-4.7237 50.6966L-5.10218 50.6336C-5.44913 50.5705 -5.7961 50.5389 -6.11151 50.4759C-6.8685 50.3497 -7.657 50.2235 -8.44553 50.0658C-9.80179 49.7504 -10.1488 48.9619 -10.2434 47.8895C-10.338 46.9433 -10.0225 46.0916 -9.2971 45.2085C-9.20248 45.1139 -9.20251 45.0508 -9.23405 44.8931C-9.32868 44.5146 -9.39175 44.1361 -9.42329 43.7891C-9.48637 43.2845 -9.51796 42.5275 -9.07639 41.8021C-8.57173 40.9505 -8.06707 40.0673 -7.59395 39.2157L-6.96309 38.1118L-7.72005 37.4178L-7.56238 36.9763L-7.31009 36.8186H-7.1839C-7.1839 36.8186 -6.93159 36.7239 -6.80542 36.7239C-5.73303 36.6609 -4.62909 36.5978 -3.55669 36.5347C-0.907242 36.377 1.83683 36.2193 4.51782 36.1247C7.13573 36.0616 9.7537 36.1247 12.4662 36.2508C14.9264 36.3454 17.1027 37.4178 18.7113 38.301C19.9099 38.9634 21.2977 39.7519 22.5593 40.635C23.2532 41.1397 23.9787 41.2974 24.8303 41.392C27.4167 41.6759 30.4447 42.0859 33.378 42.8745C34.2927 43.1268 35.3651 43.5999 35.5228 45.2085L35.5858 45.7447C35.712 46.6594 35.8067 47.6056 35.649 48.5519C35.6174 48.7411 35.5543 48.9619 35.4912 49.1511C35.365 49.4665 35.2074 49.845 34.8604 50.1289C34.8604 50.1289 33.9772 50.7913 33.5041 50.4443C33.3779 50.3497 33.3464 50.2235 33.3149 50.1604C33.2202 49.9081 33.1257 49.6243 33.0626 49.3719C32.9049 48.8988 32.7471 48.3941 32.5579 47.921C32.2425 47.1956 31.8955 46.6594 31.4224 46.2809C30.9177 45.8393 30.1292 45.7132 29.593 45.6501C27.8898 45.4924 26.6913 45.9024 25.8712 46.9433C25.4612 47.4479 25.2088 48.0472 25.1142 48.678C25.0511 49.0881 25.0826 49.4981 25.1142 49.9397C25.1142 50.2551 25.1142 50.5705 25.1142 50.8544C25.1142 51.1067 24.925 51.2328 24.578 51.2328C24.578 51.2328 24.578 51.2328 24.5464 51.2328V51.3275L24.515 51.3905ZM4.7702 50.3182L24.0418 50.602C24.0418 50.602 24.1995 50.5389 24.2942 50.5389C24.2942 50.3812 24.2942 50.192 24.2942 50.0343C24.2942 49.5612 24.2626 49.0881 24.2942 48.6149C24.3888 47.8264 24.7041 47.101 25.2088 46.5017C26.1865 45.2716 27.669 44.7669 29.593 44.9246C30.2239 44.9877 31.1701 45.1454 31.8324 45.7447C32.3686 46.2178 32.8102 46.8486 33.1572 47.6687C33.378 48.1734 33.5356 48.678 33.6933 49.1827C33.7564 49.4035 33.8195 49.5927 33.8826 49.8135C34.0087 49.7504 34.1981 49.6558 34.2611 49.6243C34.4504 49.4665 34.5765 49.1827 34.6711 48.9619C34.7342 48.8042 34.7658 48.6465 34.7973 48.5203C34.955 47.6687 34.8604 46.8171 34.7342 45.9339L34.6711 45.3977C34.5765 44.4515 34.1349 43.9784 33.094 43.6945C30.2238 42.906 27.2275 42.5275 24.6726 42.2436C23.821 42.149 22.9063 41.9598 22.0232 41.3605C20.7931 40.4773 19.4368 39.7203 18.2382 39.058C16.6927 38.2064 14.6425 37.1971 12.34 37.1024C9.65905 36.9763 7.04114 36.9132 4.45477 36.9763C1.77378 37.0394 -0.970259 37.2286 -3.58817 37.3863C-4.59748 37.4494 -5.60687 37.5125 -6.61618 37.5756L-6.07994 38.0802L-7.02614 39.6888C-7.53079 40.572 -8.00392 41.4236 -8.50857 42.3067C-8.7609 42.7168 -8.82404 43.1899 -8.76096 43.8207C-8.72941 44.1361 -8.69782 44.4831 -8.60319 44.7985C-8.50857 45.177 -8.57174 45.4924 -8.79253 45.7762C-9.39181 46.5332 -9.61256 47.164 -9.54948 47.921C-9.45486 48.8988 -9.20252 49.2458 -8.35091 49.435C-7.59392 49.5927 -6.86847 49.7189 -6.07994 49.845C-5.85915 49.8766 -5.63839 49.9081 -5.41761 49.9397C-5.16528 48.5834 -4.81828 47.5741 -4.28208 46.7225C-3.58817 45.5554 -2.7051 44.9562 -1.60116 44.8931C-0.875716 44.8615 -0.11873 44.8931 0.764421 44.9877C1.96298 45.1454 2.87773 45.7762 3.38239 46.8486C3.44547 46.9748 3.50854 47.0694 3.57163 47.1956C3.69779 47.4164 3.82391 47.6372 3.91853 47.8895C4.13932 48.5203 4.36015 49.1511 4.54939 49.8135L4.73863 50.3812L4.7702 50.3182ZM21.2977 42.8429L12.8447 42.3698L11.93 37.3232L12.4662 37.3863C16.1881 37.9225 19.0899 39.4365 21.3293 42.0544L21.4555 42.2121L21.2977 42.8114V42.8429ZM13.5071 41.6444L20.2253 42.0228C18.2698 40.0358 15.8727 38.8057 12.8763 38.2695L13.5071 41.6444ZM11.7092 42.3067L2.12076 41.739L2.62543 39.6573C2.78314 39.0264 2.94076 38.3641 3.13 37.7333C3.19309 37.4809 3.5085 37.1971 3.82391 37.1971C5.77946 37.1971 7.73503 37.2286 9.65903 37.2917C9.97445 37.2917 10.3214 37.3232 10.6368 37.3548C10.7945 37.3548 10.9523 37.3548 11.11 37.3863H11.4569L11.6777 42.3383L11.7092 42.3067ZM3.09853 41.0451L10.9207 41.4866L10.763 38.1118C10.763 38.1118 10.6683 38.1118 10.6368 38.1118C10.3214 38.1118 10.006 38.0487 9.72218 38.0487C7.79817 38.0171 5.87411 37.9856 3.9501 37.954C3.72932 38.5849 3.57166 39.2157 3.41396 39.8465L3.13 41.0135L3.09853 41.0451ZM1.58452 41.739L-6.64766 41.2343L-6.42694 40.7297C-6.42694 40.7297 -6.33223 40.4773 -6.23761 40.3827L-5.73304 39.8465C-5.19684 39.2788 -4.66064 38.711 -4.06136 38.1748C-3.399 37.544 -2.54739 37.4809 -1.7904 37.4178H-1.69578C-0.749548 37.3548 0.228238 37.2917 1.17447 37.2601C1.55296 37.2601 1.93151 37.2601 2.31 37.2286C2.34154 37.2286 2.40459 37.2286 2.46767 37.2286L3.03539 37.2917L1.58452 41.739ZM-5.35446 40.5404L1.04838 40.9189L1.99457 37.9856C1.7107 37.9856 1.4268 37.9856 1.17447 37.9856C0.259779 38.0171 -0.717976 38.0487 -1.66421 38.1118H-1.75883C-2.45273 38.1748 -3.08358 38.2064 -3.55669 38.648C-4.12443 39.1841 -4.6606 39.7519 -5.1968 40.2881L-5.35446 40.4458V40.5404Z" fill="black"/>
<path d="M28.9311 54.3608C27.8272 54.3608 26.7548 53.9192 25.9347 53.1307C25.0831 52.3106 24.5784 51.2067 24.5469 50.0081C24.5469 48.8096 24.957 47.6741 25.777 46.8225C26.5971 45.9709 27.701 45.4977 28.8996 45.4662C31.3598 45.4347 33.3468 47.3587 33.4099 49.8504C33.4099 50.9859 32.9999 52.0898 32.2113 52.9099C31.3597 53.7931 30.2243 54.2977 29.0258 54.3293C29.0258 54.3293 28.9627 54.3293 28.9311 54.3293V54.3608ZM28.9942 46.2547C28.9942 46.2547 28.9627 46.2547 28.9311 46.2547C27.9534 46.2547 27.0386 46.6648 26.3447 47.3587C25.6824 48.0526 25.3039 48.9988 25.3354 49.9766C25.3354 50.9544 25.7455 51.869 26.4709 52.563C27.1648 53.2253 28.0479 53.6038 28.9942 53.5723C30.0035 53.5723 30.9497 53.1307 31.6436 52.4052C32.306 51.7113 32.6529 50.8282 32.6214 49.882C32.5583 47.8318 30.9497 46.2547 28.9626 46.2547H28.9942ZM28.9942 52.8153C28.2372 52.8153 27.5118 52.4999 26.9756 51.9637C26.4079 51.3959 26.0925 50.6705 26.0925 49.9135C26.0925 48.3364 27.3856 47.0433 28.9626 47.0117C29.7511 47.0117 30.4767 47.2956 31.0129 47.8318C31.5806 48.368 31.8645 49.0934 31.896 49.882C31.896 51.459 30.6343 52.7837 29.0572 52.8153C29.0572 52.8153 29.0257 52.8153 28.9942 52.8153ZM28.9626 47.8002C27.7956 47.8002 26.8494 48.778 26.8494 49.9135C26.8494 50.4812 27.0701 51.0174 27.4802 51.4275C27.8902 51.8375 28.4265 52.0268 29.0258 52.0583C30.1928 52.0583 31.1075 51.0805 31.1075 49.9135C31.1075 49.3458 30.8867 48.8096 30.4766 48.3995C30.0666 47.9895 29.5303 47.8002 28.9626 47.8002Z" fill="black"/>
</g>
<path d="M35.1758 37.3419C35.0811 35.6072 35.2704 33.9039 35.8066 32.2953C36.5952 29.8982 37.9514 27.8796 39.8755 26.271C41.4525 24.9463 43.2503 24.0316 45.269 23.5585C46.1206 23.3692 47.0352 23.2746 47.9184 23.18V20.6567C47.9184 20.6567 47.7922 20.6567 47.7292 20.6567C46.6883 20.6882 45.6474 20.8459 44.6381 21.0983C42.0833 21.7291 39.8123 22.8961 37.8568 24.6309C36.6582 25.7033 35.6174 26.9649 34.7973 28.3527C33.7249 30.1505 33.0626 32.1061 32.7787 34.2193C32.621 35.3548 32.5895 36.4903 32.6841 37.6573H35.2073C35.2073 37.6573 35.2073 37.4681 35.2073 37.3735L35.1758 37.3419Z" fill="black"/>
<path d="M39.9385 28.7344C38.6453 30.2483 37.8252 31.7623 37.3521 33.434C36.9736 34.7903 36.879 36.2096 36.9736 37.629H39.4969C39.4969 37.629 39.4969 37.5028 39.4969 37.4082C39.3392 34.9795 39.97 32.8347 41.4525 30.9422C42.5879 29.4914 44.0388 28.482 45.7736 27.8828C46.4675 27.6304 47.1929 27.5043 47.9499 27.4096V24.8864C47.9499 24.8864 47.7291 24.8864 47.6029 24.8864C44.4488 25.2018 41.8309 26.5265 39.9385 28.6713V28.7344Z" fill="black"/>
<path d="M41.6114 34.3449C41.2329 35.4173 41.1067 36.5212 41.2959 37.6567H43.7877C43.7877 37.6567 43.7877 37.4359 43.7877 37.3097C43.6931 35.8273 44.1031 34.5657 45.1439 33.3356C45.2701 33.2094 45.4909 32.9886 45.7432 32.7994C46.4056 32.2632 47.1311 31.9162 47.9511 31.7585V29.2352C47.2257 29.3299 46.5002 29.4876 45.8379 29.803C43.7877 30.7177 42.3684 32.2316 41.6429 34.3449H41.6114Z" fill="black"/>
</svg>
